<svg height="473pt" viewBox="-46 0 473 473.19526" width="473pt" xmlns="http://www.w3.org/2000/svg"><path d="m12.789062 415.257812c-6.253906 6.246094-6.253906 16.382813 0 22.628907l22.625 22.625c6.246094 6.253906 16.382813 6.253906 22.628907 0l203.640625-203.648438-45.246094-45.246093zm0 0" fill="#9bc9ff"/><path d="m363.507812 155.046875c6.253907-6.246094 6.253907-16.382813 0-22.628906l-22.625-22.625c-6.246093-6.253907-16.382812-6.253907-22.628906 0l-11.3125 11.3125 45.253906 45.253906zm0 0" fill="#9bc9ff"/><g fill="#1e81ce"><path d="m369.164062 172.015625-5.65625-5.65625 5.664063-5.664063c9.371094-9.371093 9.371094-24.5625 0-33.933593l-22.625-22.625c-9.496094-9.0625-24.4375-9.0625-33.933594 0l-5.664062 5.65625-11.3125-11.3125c-3.125-3.125-8.1875-3.125-11.3125 0l-5.664063 5.65625-4.207031-4.207031-27.71875-94.226563c-.710937-2.367187-2.476563-4.277344-4.785156-5.167969-2.308594-.890625-4.898438-.660156-7.015625.617188l-2.519532 1.519531c-55.136718 33.132813-101.304687 79.285156-134.457031 134.410156l-1.519531 2.535157c-1.273438 2.121093-1.488281 4.714843-.589844 7.019531.898438 2.304687 2.816406 4.0625 5.1875 4.761719l94.144532 27.691406 4.28125 4.414062-5.601563 5.390625c-1.539063 1.492188-2.417969 3.542969-2.433594 5.6875s.828125 4.207031 2.347657 5.722657l11.3125 11.3125-197.960938 197.992187c-9.371094 9.371094-9.371094 24.5625 0 33.933594l22.625 22.625c9.371094 9.371093 24.5625 9.371093 33.933594 0l198-197.984375 5.65625 5.65625c15.636718 15.59375 40.941406 15.59375 56.578125 0l45.246093-45.253906c15.621094-15.621094 15.621094-40.949219 0-56.570313zm-45.246093-56.566406c3.160156-3.035157 8.148437-3.035157 11.308593 0l22.625 22.625c3.125 3.121093 3.125 8.1875 0 11.308593l-5.65625 5.65625-33.933593-33.933593zm-271.539063 339.40625c-3.15625 3.035156-8.144531 3.035156-11.300781 0l-22.625-22.625c-3.125-3.121094-3.125-8.1875 0-11.308594l197.976563-197.992187 33.941406 33.941406zm305.472656-237.597657-45.246093 45.253907c-9.390625 9.339843-24.5625 9.339843-33.953125 0l-67.785156-67.757813 5.472656-5.304687c1.527344-1.476563 2.402344-3.5 2.433594-5.625.035156-2.121094-.777344-4.171875-2.257813-5.695313l-11.3125-11.671875c-.949219-.988281-2.140625-1.714843-3.453125-2.105469l-86.195312-25.359374c30.171874-48.003907 70.765624-88.597657 118.769531-118.769532l25.34375 86.167969c.378906 1.285156 1.070312 2.453125 2.015625 3.402344l11.3125 11.3125c1.5 1.5 3.539062 2.34375 5.660156 2.34375 2.125 0 4.160156-.84375 5.660156-2.34375l5.65625-5.65625 67.878906 67.878906c9.375 9.375 9.375 24.570313 0 33.945313zm0 0"/><path d="m215.820312 52.511719c-25.589843 19.539062-48.460937 42.410156-68 68-2.617187 3.515625-1.921874 8.480469 1.5625 11.140625 3.484376 2.65625 8.460938 2.015625 11.15625-1.4375 18.671876-24.449219 40.523438-46.300782 64.976563-64.964844 3.511719-2.683594 4.1875-7.707031 1.503906-11.21875-2.679687-3.511719-7.703125-4.183594-11.214843-1.503906zm0 0"/></g></svg>