<svg height="480pt" viewBox="0 0 480 480.19398" width="480pt" xmlns="http://www.w3.org/2000/svg"><g fill="#9bc9ff"><path d="m64.097656 64.195312-56 56v40h48l96-96zm0 0"/><path d="m416.097656 64.195312-96 96h88l64-64v-32zm0 0"/><path d="m240.097656 64.195312-96 96h88l96-96zm0 0"/><path d="m72.097656 472.195312 32-104 14.800782-48 49.199218-160h-64l-96 312zm0 0"/><path d="m361.296875 320.195312 14.800781 48 32 104h64l-96-312h-64zm0 0"/></g><path d="m472.097656 56.195312h-91.054687c10.101562-8.746093 13.707031-22.851562 9.039062-35.371093-4.664062-12.519531-16.621093-20.824219-29.984375-20.824219-13.363281 0-25.316406 8.304688-29.984375 20.824219s-1.0625 26.625 9.042969 35.371093h-198.113281c10.101562-8.746093 13.707031-22.851562 9.039062-35.371093-4.664062-12.519531-16.621093-20.824219-29.984375-20.824219-13.363281 0-25.316406 8.304688-29.984375 20.824219s-1.0625 26.625 9.042969 35.371093h-91.058594c-4.417968 0-7.9999998 3.582032-7.9999998 8v96c0 4.417969 3.5820318 8 7.9999998 8h85.167969l-92.816406 301.648438c-.746094 2.425781-.296875 5.0625 1.214843 7.105469 1.507813 2.039062 3.894532 3.246093 6.433594 3.246093h64c3.515625 0 6.617188-2.292968 7.648438-5.648437l30.257812-98.351563h260.191406l30.253907 98.351563c1.035156 3.355469 4.136719 5.648437 7.648437 5.648437h64c2.539063 0 4.929688-1.207031 6.4375-3.246093 1.507813-2.042969 1.957032-4.679688 1.210938-7.105469l-92.816406-301.648438h85.167968c4.417969 0 8-3.582031 8-8v-96c0-4.417968-3.582031-8-8-8zm-112-40c8.835938 0 16 7.164063 16 16 0 8.835938-7.164062 16-16 16-8.835937 0-16-7.164062-16-16 0-8.835937 7.164063-16 16-16zm-240 0c8.835938 0 16 7.164063 16 16 0 8.835938-7.164062 16-16 16-8.835937 0-16-7.164062-16-16 0-8.835937 7.164063-16 16-16zm344 76.6875-59.3125 59.3125h-65.375l80-80h44.6875zm-212.6875 59.3125 80-80h65.375l-80 80zm-88 0 80-80h65.375l-80 80zm-88 0 80-80h65.375l-80 80zm-30.625-80-28.6875 28.6875v-28.6875zm-28.6875 51.3125 51.3125-51.3125h65.375l-80 80h-36.6875zm50.089844 340.6875h-47.257812l91.082031-296h47.253906zm48.75-104 9.863281-32h230.59375l9.863281 32zm14.761719-48 44.3125-144h132.175781l44.3125 144zm331.566406 152h-47.253906l-91.082031-296h47.257812zm-33.855469-312 36.6875-36.6875v36.6875zm0 0" fill="#1e81ce"/></svg>