<svg height="478pt" viewBox="0 0 478 478.37276" width="478pt" xmlns="http://www.w3.org/2000/svg"><path d="m442.34375 22.078125c-9.6875-9.691406-23.054688-14.78125-36.734375-13.984375-13.675781.792969-26.367187 7.398438-34.863281 18.144531l-117.273438 165.191407c-2.726562 3.84375-7.007812 6.289062-11.703125 6.683593-4.695312.398438-9.324219-1.296875-12.65625-4.625l-34.207031-34.210937c-5.992188-6.027344-14.140625-9.417969-22.640625-9.417969s-16.648437 3.390625-22.640625 9.417969l-16.960938 16.960937 169.679688 169.679688 16.960938-16.960938c6.027343-5.992187 9.417968-14.140625 9.417968-22.636719 0-8.5-3.390625-16.648437-9.417968-22.640624l-34.207032-34.210938c-3.332031-3.332031-5.023437-7.960938-4.628906-12.65625.398438-4.695312 2.839844-8.976562 6.683594-11.703125l165.191406-117.269531c10.75-8.5 17.351562-21.1875 18.148438-34.867188.792968-13.679687-4.296876-27.046875-13.988282-36.734375zm-21.183594 57.976563c-6.25 6.246093-16.378906 6.246093-22.625-.003907-6.246094-6.246093-6.246094-16.378906 0-22.625 6.246094-6.25 16.375-6.25 22.625-.003906 6.253906 6.25 6.253906 16.382813 0 22.632813zm0 0" fill="#9bc9ff"/><g fill="#1e81ce"><path d="m462.160156 30.582031-14.160156-14.160156c-11.347656-11.363281-27.027344-17.308594-43.058594-16.316406-16.027344.992187-30.859375 8.824219-40.714844 21.5l-117.28125 165.191406c-1.351562 1.933594-3.496093 3.164063-5.847656 3.34375-2.347656.183594-4.660156-.660156-6.335937-2.308594l-34.183594-34.195312c-7.492187-7.53125-17.679687-11.765625-28.304687-11.765625s-20.8125 4.234375-28.304688 11.765625l-16.960938 16.960937-124.480468 124.359375c-3.121094 3.125-3.121094 8.1875 0 11.3125l169.761718 169.761719c3.125 3.121094 8.1875 3.121094 11.3125 0l124.40625-124.480469 16.921876-16.921875c7.539062-7.488281 11.777343-17.679687 11.777343-28.304687 0-10.628907-4.238281-20.820313-11.777343-28.308594l-34.199219-34.210937c-1.667969-1.664063-2.511719-3.976563-2.316407-6.324219.199219-2.347657 1.417969-4.484375 3.339844-5.851563l165.191406-117.277344c.113282-.078124.222657-.160156.328126-.25 12.539062-9.914062 20.242187-24.714843 21.167968-40.671874.929688-15.960938-5.007812-31.554688-16.3125-42.855469zm-284.214844 428.503907-22.65625-22.65625 73.535157-73.535157c3.03125-3.140625 2.988281-8.128906-.097657-11.214843-3.085937-3.085938-8.074218-3.128907-11.214843-.097657l-73.535157 73.535157-22.625-22.621094 62.226563-62.226563c3.121094-3.125 3.121094-8.191406-.003906-11.316406-3.128907-3.121094-8.195313-3.121094-11.316407.003906l-62.234374 62.226563-22.613282-22.625 50.902344-50.914063c3.03125-3.136719 2.988281-8.125-.097656-11.210937-3.085938-3.085938-8.074219-3.132813-11.214844-.097656l-50.902344 50.902343-22.632812-22.632812 84.847656-84.855469c2.078125-2.007812 2.914062-4.984375 2.183594-7.78125-.734375-2.796875-2.917969-4.980469-5.714844-5.710938-2.796875-.734374-5.773438.101563-7.78125 2.179688l-84.847656 84.855469-22.65625-22.65625 113.167968-113.085938 158.402344 158.398438zm284.574219-386.527344c-.671875 11.324218-6.117187 21.832031-14.984375 28.910156l-165.015625 117.121094c-5.761719 4.089844-9.425781 10.511718-10.019531 17.554687-.59375 7.039063 1.945312 13.984375 6.941406 18.980469l34.222656 34.234375c4.527344 4.488281 7.070313 10.597656 7.070313 16.972656 0 6.371094-2.542969 12.480469-7.070313 16.96875l-11.320312 11.304688-158.398438-158.398438 11.320313-11.320312c9.484375-9.109375 24.46875-9.109375 33.949219 0l34.210937 34.207031c4.996094 4.996094 11.941407 7.535156 18.980469 6.941406 7.042969-.59375 13.464844-4.257812 17.554688-10.019531l117.054687-164.816406c7.085937-8.957031 17.664063-14.453125 29.066406-15.113281 11.398438-.65625 22.539063 3.589843 30.605469 11.671874l14.160156 14.160157c8.078125 8.085937 12.324219 19.230469 11.671875 30.640625zm0 0"/><path d="m392.878906 51.757812c-9.371094 9.375-9.371094 24.570313 0 33.945313 9.375 9.371094 24.574219 9.371094 33.945313 0 9.371093-9.371094 9.371093-24.566406 0-33.9375-9.496094-9.070313-24.445313-9.074219-33.945313-.007813zm22.625 22.625c-3.15625 3.03125-8.144531 3.03125-11.304687 0-3.125-3.125-3.125-8.191406 0-11.316406 3.125-3.121094 8.191406-3.121094 11.316406 0 3.121094 3.125 3.121094 8.191406-.003906 11.316406zm0 0"/></g></svg>