<svg height="480pt" viewBox="-63 0 479 480" width="480pt" xmlns="http://www.w3.org/2000/svg"><g fill="#9bc9ff"><path d="m56.5 128h32v184h-32zm0 0"/><path d="m88.5 128v-36.160156c-9.945312 5.546875-22.054688 5.546875-32 0v36.160156zm0 0"/><path d="m128.5 40v-32h-112v32zm0 0"/><path d="m264.5 128h32v184h-32zm0 0"/><path d="m296.5 128v-36.160156c-9.945312 5.546875-22.054688 5.546875-32 0v36.160156zm0 0"/><path d="m336.5 40v-32h-112v32zm0 0"/><path d="m264.5 344h32v-32h-32zm0 0"/></g><path d="m135.179688 328.113281-29.367188 4.894531c-2.320312.386719-4.691406-.269531-6.488281-1.789062-1.792969-1.523438-2.824219-3.753906-2.824219-6.105469v-228.890625c15.578125-11.742187 26.078125-28.992187 29.359375-48.222656h2.640625c4.417969 0 8-3.582031 8-8v-32c0-4.417969-3.582031-8-8-8h-112c-4.417969 0-8 3.582031-8 8v32c0 4.417969 3.582031 8 8 8h2.640625c3.273437 19.230469 13.777344 36.484375 29.359375 48.222656v228.890625c0 2.351563-1.03125 4.582031-2.824219 6.105469-1.796875 1.519531-4.167969 2.175781-6.488281 1.789062l-29.367188-4.894531c-2.320312-.390625-4.691406.261719-6.488281 1.78125s-2.832031 3.753907-2.832031 6.105469v104c.027344 22.082031 17.917969 39.972656 40 40h64c22.082031-.027344 39.972656-17.917969 40-40v-104c0-2.351562-1.035156-4.585938-2.832031-6.105469s-4.167969-2.171875-6.488281-1.78125zm-62.679688-224.113281c2.390625-.023438 4.777344-.261719 7.128906-.710938.285156-.050781.582032 0 .871094-.089843v16.800781h-16v-16.800781c.296875.066406.601562 0 .886719.089843 2.347656.449219 4.726562.6875 7.113281.710938zm-8 32h16v168h-16zm56-120v16h-96v-16zm-85.007812 32h74.015624c-2.933593 15.121094-11.886718 28.402344-24.800781 36.800781-5.59375 3.136719-12.183593 3.996094-18.398437 2.398438-2.121094-.554688-4.167969-1.359375-6.097656-2.398438-12.886719-8.410156-21.808594-21.691406-24.71875-36.800781zm93.007812 392c0 13.253906-10.746094 24-24 24h-64c-13.253906 0-24-10.746094-24-24v-94.550781l20.054688 3.34375c6.960937 1.160156 14.078124-.804688 19.460937-5.363281 5.382813-4.5625 8.484375-11.261719 8.484375-18.316407v-5.113281h16v5.113281c0 7.054688 3.101562 13.753907 8.484375 18.316407 5.382813 4.558593 12.5 6.523437 19.460937 5.363281l20.054688-3.34375zm0 0" fill="#1e81ce"/><path d="m312.5 336h-8v-239.777344c15.578125-11.742187 26.078125-28.992187 29.359375-48.222656h2.640625c4.417969 0 8-3.582031 8-8v-32c0-4.417969-3.582031-8-8-8h-112c-4.417969 0-8 3.582031-8 8v32c0 4.417969 3.582031 8 8 8h2.640625c3.273437 19.230469 13.777344 36.484375 29.359375 48.222656v239.777344h-8c-22.082031.027344-39.972656 17.917969-40 40v96c0 4.417969 3.582031 8 8 8s8-3.582031 8-8v-96c.042969-10.132812 6.445312-19.148438 16-22.527344v118.527344c0 4.417969 3.582031 8 8 8s8-3.582031 8-8v-120h16v120c0 4.417969 3.582031 8 8 8s8-3.582031 8-8v-120h16v120c0 4.417969 3.582031 8 8 8s8-3.582031 8-8v-118.527344c9.554688 3.378906 15.957031 12.394532 16 22.527344v96c0 4.417969 3.582031 8 8 8s8-3.582031 8-8v-96c-.027344-22.082031-17.917969-39.972656-40-40zm-32-232c2.390625-.023438 4.777344-.261719 7.128906-.710938.285156-.050781.582032 0 .871094-.089843v16.800781h-16v-16.800781c.296875.066406.601562 0 .886719.089843 2.347656.449219 4.726562.6875 7.113281.710938zm-8 32h16v168h-16zm56-120v16h-96v-16zm-85.007812 32h74.015624c-2.933593 15.121094-11.886718 28.402344-24.800781 36.800781-5.59375 3.136719-12.183593 3.996094-18.398437 2.398438-2.121094-.554688-4.167969-1.359375-6.097656-2.398438-12.886719-8.410156-21.808594-21.691406-24.71875-36.800781zm29.007812 288v-16h16v16zm0 0" fill="#1e81ce"/></svg>