<svg height="481pt" viewBox="-28 0 481 481.64466" width="481pt" xmlns="http://www.w3.org/2000/svg"><path d="m172.371094 349.195312 5.65625-5.65625-5.65625 5.65625 226.273437-226.277343c24.988281-24.996094 24.988281-65.511719 0-90.503907l-5.65625-5.65625c-24.992187-24.996093-65.519531-24.996093-90.511719 0l-294.152343 294.152344zm164.691406-285.824218c6.246094-6.25 16.378906-6.25 22.625 0 6.25 6.246094 6.25 16.378906 0 22.628906-6.246094 6.246094-16.378906 6.246094-22.625-.003906-6.246094-6.246094-6.246094-16.375 0-22.625zm0 0" fill="#9bc9ff"/><path d="m217.628906 111.605469-67.878906 67.878906zm0 0" fill="#9bc9ff"/><g fill="#1e81ce"><path d="m404.300781 26.757812-5.65625-5.671874c-28.117187-28.113282-73.699219-28.113282-101.816406 0l-79.199219 79.199218-11.320312-11.3125c-3.125-3.125-8.1875-3.125-11.3125 0l-67.878906 67.878906c-3.125 3.125-3.125 8.1875 0 11.3125l11.320312 11.320313-135.769531 135.769531c-2.113281 2.113282-2.875 5.226563-1.972657 8.078125.90625 2.847657 3.324219 4.957031 6.269532 5.464844l12.472656 2.144531 20.558594 143.839844c.429687 3 2.519531 5.5 5.390625 6.457031.816406.269531 1.671875.410157 2.53125.40625 2.121093 0 4.15625-.84375 5.65625-2.34375l350.726562-350.726562c28.113281-28.117188 28.113281-73.699219 0-101.816407zm-260.214843 135.757813 56.566406-56.566406 5.664062 5.65625-56.566406 56.574219zm-108.074219 171.289063 119.785156 20.648437-102.222656 102.222656zm356.976562-216.542969-223.34375 223.34375-144.742187-24.953125 283.199218-283.199219c21.867188-21.871094 57.328126-21.871094 79.199219 0l5.65625 5.65625c21.820313 21.867187 21.835938 57.265625.03125 79.152344zm0 0"/><path d="m365.339844 57.707031c-8.097656-8.09375-20.785156-9.339843-30.300782-2.980469-9.519531 6.363282-13.222656 18.5625-8.839843 29.140626 4.382812 10.578124 15.625 16.585937 26.855469 14.355468 11.226562-2.234375 19.316406-12.089844 19.316406-23.539062.003906-6.367188-2.527344-12.472656-7.03125-16.976563zm-11.3125 22.632813c-3.121094 3.125-8.1875 3.125-11.3125 0-3.125-3.121094-3.125-8.1875 0-11.3125s8.191406-3.125 11.3125 0c3.125 3.125 3.125 8.1875 0 11.3125zm0 0"/></g></svg>