<svg height="487pt" viewBox="0 0 487.24319 487" width="487pt" xmlns="http://www.w3.org/2000/svg"><g fill="#9bc9ff"><path d="m341.722656 139.789062c-7.648437-4.429687-17.441406-1.820312-21.867187 5.832032-4.429688 7.652344-1.808594 17.445312 5.84375 21.867187 7.65625 4.421875 17.445312 1.796875 21.863281-5.859375 2.128906-3.667968 2.710938-8.035156 1.613281-12.132812-1.09375-4.097656-3.777343-7.589844-7.453125-9.707032zm0 0"/><path d="m305.722656 202.109375c-1.28125-.722656-2.558594-1.519531-3.757812-2.320313l-1.921875 16.160157c-10.382813 86.960937-55.949219 165.863281-126.078125 218.320312l-17.121094 12.796875c-4.292969 3.226563-6.679688 8.390625-6.359375 13.75.320313 5.363282 3.3125 10.203125 7.957031 12.890625l2.320313 1.359375c11.082031 6.386719 24.90625 5.535156 35.121093-2.15625l19.679688-14.640625c70.105469-52.480469 115.664062-131.371093 126.082031-218.320312l3.757813-31.519531c-13.550782 2.933593-27.710938.675781-39.679688-6.320313zm0 0"/><path d="m279.003906 141.949219-31.601562 3.757812c-86.949219 10.417969-165.839844 55.976563-218.320313 126.082031l-14.640625 19.679688c-7.691406 10.214844-8.542968 24.039062-2.160156 35.121094l1.363281 2.320312c2.6875 4.644532 7.527344 7.636719 12.890625 7.957032 5.359375.320312 10.523438-2.066407 13.746094-6.359376l12.800781-17.121093c52.457031-70.128907 131.359375-115.699219 218.320313-126.078125l16.160156-1.921875c-8.710938-12.683594-11.808594-28.398438-8.558594-43.4375zm0 0"/></g><path d="m321.722656 174.429688c3.652344 2.09375 7.789063 3.199218 12 3.199218 2.097656.007813 4.183594-.261718 6.207032-.800781 1.832031-.507813 3.59375-1.230469 5.25-2.160156.359374-.191407.679687-.421875 1.03125-.640625 1.300781-.792969 2.519531-1.710938 3.640624-2.742188.367188-.335937.734376-.65625 1.085938-1.015625 1.359375-1.382812 2.546875-2.925781 3.53125-4.59375 3.167969-5.507812 4.03125-12.046875 2.398438-18.191406-1.59375-6.183594-5.609376-11.46875-11.144532-14.65625-5.507812-3.179687-12.050781-4.042969-18.191406-2.398437-6.175781 1.617187-11.441406 5.652343-14.609375 11.199218-3.175781 5.507813-4.039063 12.050782-2.398437 18.191406 1.617187 6.175782 5.652343 11.445313 11.199218 14.609376zm5.082032-24.800782c1.039062-1.828125 2.765624-3.160156 4.796874-3.695312.691407-.199219 1.40625-.300782 2.121094-.304688 1.425782 0 2.824219.378906 4.054688 1.09375 1.828125 1.039063 3.160156 2.769532 3.699218 4.800782.558594 2.0625.269532 4.265624-.800781 6.113281-2.230469 3.800781-7.109375 5.085937-10.921875 2.871093-1.824218-1.039062-3.15625-2.769531-3.695312-4.800781-.554688-2.046875-.277344-4.234375.769531-6.078125zm0 0" fill="#1e81ce"/><path d="m483.242188 62.699219c-2.472657-1.429688-5.523438-1.429688-8 0l-90.589844 52.28125c-3.5-4.652344-7.621094-8.804688-12.25-12.335938l52.25-90.535156c1.402344-2.492187 1.371094-5.539063-.082032-8-1.742187-2.914063-5.101562-4.449219-8.445312-3.863281-48.234375 9.035156-90.101562 38.707031-114.609375 81.222656l-23.175781 40.160156c-2.339844 4.113282-4.195313 8.488282-5.519532 13.03125l-26.402343 3.136719c-89.054688 10.839844-169.847657 57.5-223.75 129.214844l-14.625 19.65625c-9.660157 12.796875-10.707031 30.136719-2.65625 44l1.335937 2.289062c4.054688 6.980469 11.34375 11.457031 19.402344 11.910157h1.40625c7.558594.019531 14.679688-3.539063 19.199219-9.597657l12.800781-17.113281c51.25-68.238281 128.101562-112.628906 212.816406-122.929688l11.878906-1.40625c2.765626 3.398438 5.878907 6.5 9.289063 9.257813l-1.390625 11.917969c-10.292969 84.734375-54.695312 161.605468-122.945312 212.863281l-17.121094 12.800781c-6.4375 4.828125-10.027344 12.5625-9.558594 20.597656.46875 8.035157 4.929688 15.296876 11.886719 19.347657l2.402343 1.382812c13.839844 8.015625 31.136719 6.96875 43.910157-2.664062l19.664062-14.65625c71.726563-53.90625 118.386719-134.710938 129.222657-223.777344l3.144531-26.351563c4.496093-1.347656 8.832031-3.179687 12.929687-5.460937l1.847656-1.058594h.054688l38.320312-22.160156c42.511719-24.503906 72.183594-66.367187 81.222657-114.589844.089843-.488281.136719-.984375.136719-1.480469v-.160156c0-2.859375-1.523438-5.5-4-6.929687zm-167.871094 26.769531c19.011718-32.984375 49.710937-57.632812 86.023437-69.074219l-46.597656 80.753907c-2.210937 3.824218-.898437 8.71875 2.925781 10.929687 7.316406 4.171875 13.375 10.234375 17.542969 17.550781 8.566406 14.851563 8.566406 33.144532 0 48-3.855469 6.757813-9.316406 12.464844-15.894531 16.625l-1.648438.925782c-4.367187 2.5-9.082031 4.328124-13.992187 5.425781-11.644531 2.503906-23.804688.554687-34.078125-5.464844-1.074219-.609375-2.144532-1.28125-3.199219-1.953125-16.042969-11.019531-23.8125-30.660156-19.640625-49.671875 1-4.894531 2.8125-9.589844 5.359375-13.886719zm-44.917969 89.894531c-89.074219 10.824219-169.886719 57.492188-223.777344 129.234375l-12.800781 17.117188c-1.578125 2.164062-4.152344 3.371094-6.824219 3.203125-2.707031-.136719-5.160156-1.644531-6.503906-4l-1.34375-2.28125c-4.789063-8.3125-4.136719-18.6875 1.65625-26.335938l14.625-19.710937c51.273437-68.238282 128.136719-112.636719 212.863281-122.960938l21.457032-2.550781v.988281c-.042969 1.363282 0 2.722656.054687 4.074219.039063.910156.046875 1.824219.121094 2.726563.117187 1.480468.335937 2.945312.558593 4.417968.113282.800782.191407 1.550782.335938 2.320313.359375 1.894531.800781 3.765625 1.351562 5.597656.097657.320313.152344.65625.25.96875.660157 2.203125 1.441407 4.363281 2.34375 6.480469l.046876.136718zm63.269531 59.632813c-10.324218 84.71875-54.714844 161.578125-122.933594 212.855468l-19.707031 14.65625c-7.628906 5.78125-17.972656 6.4375-26.269531 1.664063l-2.351562-1.382813c-2.355469-1.339843-3.863282-3.785156-4-6.488281-.171876-2.671875 1.035156-5.246093 3.199218-6.824219l17.117188-12.800781c71.734375-53.898437 118.394531-134.710937 129.210937-223.785156l.527344-4.421875c.136719.054688.28125.09375.421875.160156.601562.246094 1.21875.429688 1.816406.664063 1.867188.726562 3.738282 1.382812 5.648438 1.925781.800781.226562 1.554687.386719 2.335937.578125 1.824219.449219 3.648438.800781 5.503907 1.101563.800781.113281 1.554687.210937 2.328124.296874 1.863282.207032 3.722657.328126 5.601563.367188.511719 0 1.007813.097656 1.511719.097656s.800781-.054687 1.214844-.0625c.417968-.007812.90625.039063 1.359374 0zm64.175782-67.015625-3.496094 2.023437c.3125-.9375.535156-1.886718.800781-2.832031.152344-.558594.328125-1.113281.472656-1.671875.613281-2.371094 1.089844-4.773438 1.421875-7.199219.058594-.410156.074219-.800781.121094-1.234375.242188-2.078125.367188-4.175781.410156-6.261718 0-.648438 0-1.296876 0-1.945313-.019531-2.457031-.175781-4.910156-.472656-7.351563 0-.136718-.058594-.261718-.074219-.398437-.324219-2.320313-.769531-4.617187-1.34375-6.890625-.167969-.65625-.34375-1.300781-.527343-1.949219-.589844-2.109375-1.285157-4.1875-2.085938-6.226562-.121094-.3125-.21875-.621094-.335938-.917969l-.105468-.28125 74.261718-42.855469c-11.441406 36.300781-36.085937 66.984375-69.0625 85.992188zm0 0" fill="#1e81ce"/></svg>