<svg height="480pt" viewBox="0 0 480.28117 480" width="480pt" xmlns="http://www.w3.org/2000/svg"><g fill="#9bc9ff"><path d="m12.691406 411.164062c-6.246094 6.246094-6.246094 16.375 0 22.621094l33.945313 33.945313c6.246093 6.246093 16.375 6.246093 22.621093 0l250.28125-250.273438-28.28125-28.285156-28.296874-28.289063zm0 0"/><path d="m262.960938 160.882812 28.289062 28.289063zm0 0"/><path d="m421.355469 115.636719c6.25-6.25 6.25-16.386719 0-22.632813l-33.9375-33.9375c-6.246094-6.25-16.382813-6.25-22.632813 0l-11.308594 11.3125 56.566407 56.566406zm0 0"/></g><path d="m477.9375 183.515625-56.566406-56.570313 5.65625-5.65625c9.375-9.371093 9.375-24.570312 0-33.941406l-33.953125-33.9375c-9.371094-9.375-24.570313-9.375-33.941407 0l-5.65625 5.65625-56.570312-56.582031c-3.125-3.125-8.1875-3.125-11.3125 0l-90.511719 90.519531c-3.121093 3.121094-3.121093 8.1875 0 11.3125l56.570313 56.566406-244.625 244.625c-9.371094 9.371094-9.371094 24.5625 0 33.933594l33.953125 33.945313c9.371093 9.371093 24.5625 9.371093 33.933593 0l244.625-244.617188 56.574219 56.570313c3.125 3.121094 8.191407 3.121094 11.3125 0l90.511719-90.511719c3.125-3.125 3.125-8.1875 0-11.3125zm-107.496094-118.792969c1.503906-1.503906 3.539063-2.347656 5.660156-2.347656 2.125 0 4.160157.84375 5.660157 2.347656l33.9375 33.9375c3.121093 3.121094 3.121093 8.1875 0 11.3125l-5.65625 5.652344-35.558594-35.542969-9.699219-9.695312zm-62.222656 152.734375-244.617188 244.617188c-3.121093 3.125-8.1875 3.125-11.3125 0l-33.941406-33.941407c-3.125-3.125-3.125-8.191406 0-11.3125l244.613282-244.617187zm73.542969 50.914063-169.710938-169.710938 79.199219-79.203125 169.703125 169.714844zm0 0" fill="#1e81ce"/></svg>