<svg height="480pt" viewBox="-64 0 480 480.02408" width="480pt" xmlns="http://www.w3.org/2000/svg"><g fill="#9bc9ff"><path d="m8.011719 8v464h128v-464zm0 0"/><path d="m248.011719 120v256l48-24 48 24v-256zm0 0"/><path d="m248.011719 88h96v32h-96zm0 0"/></g><path d="m136.011719 0h-128c-4.417969 0-8.0000002 3.582031-8.0000002 8v464c0 4.417969 3.5820312 8 8.0000002 8h128c4.417969 0 8-3.582031 8-8v-464c0-4.417969-3.582031-8-8-8zm-120 464v-448h112v32h-40c-4.417969 0-8 3.582031-8 8s3.582031 8 8 8h40v16h-24c-4.417969 0-8 3.582031-8 8s3.582031 8 8 8h24v16h-40c-4.417969 0-8 3.582031-8 8s3.582031 8 8 8h40v16h-24c-4.417969 0-8 3.582031-8 8s3.582031 8 8 8h24v16h-40c-4.417969 0-8 3.582031-8 8s3.582031 8 8 8h40v16h-24c-4.417969 0-8 3.582031-8 8s3.582031 8 8 8h24v16h-40c-4.417969 0-8 3.582031-8 8s3.582031 8 8 8h40v16h-24c-4.417969 0-8 3.582031-8 8s3.582031 8 8 8h24v16h-40c-4.417969 0-8 3.582031-8 8s3.582031 8 8 8h40v16h-24c-4.417969 0-8 3.582031-8 8s3.582031 8 8 8h24v16h-40c-4.417969 0-8 3.582031-8 8s3.582031 8 8 8h40v16h-24c-4.417969 0-8 3.582031-8 8s3.582031 8 8 8h24v16h-40c-4.417969 0-8 3.582031-8 8s3.582031 8 8 8h40v16zm0 0" fill="#1e81ce"/><path d="m296.011719 0c-30.914063.0351562-55.964844 25.085938-56 56v320c0 .105469 0 .199219.039062.304688.042969.101562.058594.382812.074219.574218.085938.832032.304688 1.640625.648438 2.402344.039062.101562 0 .214844.078124.320312l48 96c.371094.722657.851563 1.382813 1.425782 1.957032.125.136718.277344.226562.414062.351562.554688.5 1.175782.917969 1.847656 1.242188.230469.117187.464844.222656.703126.3125 1.773437.746094 3.769531.746094 5.539062 0 .238281-.089844.472656-.195313.703125-.3125.671875-.324219 1.292969-.742188 1.847656-1.242188.136719-.125.289063-.214844.414063-.34375.574218-.578125 1.050781-1.242187 1.425781-1.964844l48-96c.046875-.097656 0-.210937.082031-.3125.339844-.761718.558594-1.570312.644532-2.402343 0-.191407.066406-.375.074218-.566407.007813-.191406.039063-.214843.039063-.320312v-320c-.035157-30.914062-25.085938-55.9648438-56-56zm0 160c-4.417969 0-8 3.582031-8 8v179.054688l-32 16v-235.054688h80v235.054688l-32-16v-179.054688c0-4.417969-3.582031-8-8-8zm40-48h-80v-16h80zm-80-56c0-22.089844 17.910156-40 40-40 22.089843 0 40 17.910156 40 40v24h-80zm48 382.113281v-14.113281c0-4.417969-3.582031-8-8-8s-8 3.582031-8 8v14.113281l-29.265625-58.539062 37.265625-18.628907 37.265625 18.628907zm0 0" fill="#1e81ce"/></svg>