<svg height="480pt" viewBox="0 0 480 480" width="480pt" xmlns="http://www.w3.org/2000/svg"><path d="m408 8h-208c-8.835938 0-16 7.164062-16 16v128c0 8.835938 7.164062 16 16 16h208c35.347656 0 64-28.652344 64-64v-32c0-35.347656-28.652344-64-64-64zm0 0" fill="#9bc9ff"/><path d="m232 376c-8.835938 0-16 7.164062-16 16v64c0 8.835938 7.164062 16 16 16h192c8.835938 0 16-7.164062 16-16v-64c0-8.835938-7.164062-16-16-16zm0 0" fill="#9bc9ff"/><path d="m324.960938 240-20.960938 136h104v-208h-72zm0 0" fill="#9bc9ff"/><g fill="#1e81ce"><path d="m408 0h-208c-13.253906 0-24 10.746094-24 24v9.753906l-45.824219 11.453125c-9.070312 2.265625-15.988281 9.605469-17.71875 18.792969h-24.457031c-4.417969 0-8 3.582031-8 8v8h-72c-4.417969 0-8 3.582031-8 8s3.582031 8 8 8h72v8c0 4.417969 3.582031 8 8 8h24.457031c1.730469 9.1875 8.648438 16.527344 17.71875 18.792969l45.824219 11.453125v9.753906c0 13.253906 10.746094 24 24 24h89.441406l.261719 1.3125c3.636719 18.480469 1.273437 37.640625-6.742187 54.6875h-10.960938c-4.417969 0-8 3.582031-8 8s3.582031 8 8 8h43.601562l-18.464843 120h-65.136719c-13.253906 0-24 10.746094-24 24v64c0 13.253906 10.746094 24 24 24h192c13.253906 0 24-10.746094 24-24v-64c0-13.253906-10.746094-24-24-24h-8v-192.472656c36.414062-4.109375 63.945312-34.882813 64-71.527344v-32c-.046875-39.746094-32.253906-71.953125-72-72zm-312 80h16v16h-16zm38.0625 35.273438c-3.5625-.890626-6.066406-4.09375-6.0625-7.769532v-39.007812c-.003906-3.675782 2.5-6.878906 6.0625-7.769532l41.9375-10.480468v75.507812zm166.351562 116.726562c6.855469-17.832031 8.695313-37.199219 5.320313-56h20.945313l-8.617188 56zm131.585938 160v64c0 4.417969-3.582031 8-8 8h-192c-4.417969 0-8-3.582031-8-8v-64c0-4.417969 3.582031-8 8-8h192c4.417969 0 8 3.582031 8 8zm-118.671875-24 29.535156-192h57.136719v192zm150.671875-264c-.035156 30.914062-25.085938 55.964844-56 56h-208c-4.417969 0-8-3.582031-8-8v-128c0-4.417969 3.582031-8 8-8h208c30.914062.035156 55.964844 25.085938 56 56zm0 0"/><path d="m424 48h-64c-4.417969 0-8 3.582031-8 8s3.582031 8 8 8h64c4.417969 0 8-3.582031 8-8s-3.582031-8-8-8zm0 0"/><path d="m424 80h-64c-4.417969 0-8 3.582031-8 8s3.582031 8 8 8h64c4.417969 0 8-3.582031 8-8s-3.582031-8-8-8zm0 0"/><path d="m424 112h-64c-4.417969 0-8 3.582031-8 8s3.582031 8 8 8h64c4.417969 0 8-3.582031 8-8s-3.582031-8-8-8zm0 0"/></g></svg>