<svg height="472pt" viewBox="0 0 472.33487 472" width="472pt" xmlns="http://www.w3.org/2000/svg"><g fill="#9bc9ff"><path d="m35.320312 459.808594 38.613282-38.632813-22.613282-22.617187-38.632812 38.617187c-6.25 6.25-6.25 16.382813 0 22.632813s16.382812 6.25 22.632812 0zm0 0"/><path d="m164.449219 194.902344 22.625-22.625 22.628906 22.625-22.628906 22.628906zm0 0"/><path d="m377.304688 129.128906c9.371093-9.375 9.375-24.570312 0-33.945312-9.371094-9.371094-24.570313-9.371094-33.941407 0-9.371093 9.375-9.371093 24.570312.003907 33.945312 9.371093 9.367188 24.5625 9.367188 33.9375 0zm0 0"/><path d="m240.335938 168.160156-208 208 64 64 208-208-16-9.601562c-15.753907-9.460938-28.941407-22.648438-38.402344-38.398438zm0 0"/></g><path d="m452.949219 200.558594c-49.984375 49.988281-131.03125 49.992187-181.019531.003906-49.988282-49.984375-49.988282-131.03125-.003907-181.019531 3.03125-3.136719 2.988281-8.128907-.097656-11.214844s-8.074219-3.128906-11.214844-.097656c-40.863281 40.960937-53.292969 102.375-31.574219 156l-19.328124 19.328125-11.320313-11.3125 5.664063-5.65625c3.03125-3.136719 2.988281-8.128906-.097657-11.214844-3.085937-3.085938-8.074219-3.128906-11.214843-.09375l-45.253907 45.277344c-2.082031 2.007812-2.914062 4.984375-2.183593 7.78125.734374 2.796875 2.917968 4.980468 5.714843 5.714844 2.796875.730468 5.769531-.105469 7.78125-2.183594l5.652344-5.65625 11.3125 11.320312-141.429687 141.425782c-9.371094 9.371093-9.371094 24.5625 0 33.933593l5.65625 5.65625-32.960938 32.96875c-9.375 9.371094-9.375 24.570313 0 33.945313 9.382812 9.347656 24.558594 9.347656 33.945312 0l32.957032-32.96875 5.65625 5.65625c9.371094 9.367187 24.566406 9.367187 33.9375 0l194.703125-194.695313c53.628906 21.6875 115.03125 9.257813 156-31.585937 2.078125-2.007813 2.914062-4.984375 2.183593-7.78125-.734374-2.796875-2.917968-4.980469-5.714843-5.710938-2.796875-.734375-5.773438.101563-7.78125 2.179688zm-265.871094 5.65625-11.3125-11.3125 11.3125-11.3125 11.320313 11.3125zm-157.414063 247.9375c-3.128906 3.125-8.195312 3.125-11.320312 0s-3.125-8.195313 0-11.320313l32.976562-32.96875 11.3125 11.320313zm72.550782-27.3125c-3.164063 3.019531-8.140625 3.019531-11.304688 0l-45.246094-45.257813c-1.503906-1.5-2.347656-3.535156-2.347656-5.660156 0-2.121094.84375-4.15625 2.347656-5.660156l190.75-190.75c13.035157 23.898437 32.652344 43.558593 56.519532 56.648437zm0 0" fill="#1e81ce"/><path d="m281.136719 191.359375c37.777343 37.785156 96.988281 43.617187 141.417969 13.9375 44.425781-29.683594 61.703124-86.617187 41.257812-135.984375s-72.914062-77.414062-125.320312-66.996094c-52.40625 10.421875-90.152344 56.410156-90.15625 109.84375-.042969 29.710938 11.761718 58.214844 32.800781 79.199219zm11.316406-147.078125c32.386719-32.386719 83.140625-37.382812 121.21875-11.9375 38.082031 25.445312 52.882813 74.25 35.355469 116.5625-17.53125 42.3125-62.507813 66.347656-107.425782 57.414062-44.917968-8.9375-77.269531-48.363281-77.265624-94.160156-.03125-25.46875 10.085937-49.898437 28.117187-67.878906zm0 0" fill="#1e81ce"/><path d="m360.335938 144.160156c-15.269532.003906-28.410157-10.777344-31.390626-25.75-2.984374-14.972656 5.027344-29.96875 19.132813-35.8125 14.101563-5.84375 30.371094-.914062 38.855469 11.777344 8.480468 12.695312 6.820312 29.613281-3.976563 40.410156-5.984375 6.019532-14.132812 9.394532-22.621093 9.375zm0-48c-6.472657 0-12.304688 3.898438-14.78125 9.875-2.472657 5.980469-1.105469 12.859375 3.46875 17.4375 6.328124 6.046875 16.292968 6.046875 22.625 0 4.574218-4.578125 5.941406-11.457031 3.464843-17.4375-2.476562-5.976562-8.308593-9.875-14.777343-9.875zm0 0" fill="#1e81ce"/></svg>