<svg height="488pt" viewBox="0 -16 488.75077 488" width="488pt" xmlns="http://www.w3.org/2000/svg"><path d="m451.492188 132.828125h-20.6875c-4.242188 0-8.3125-1.6875-11.3125-4.6875l-6.625-6.625c-6.246094-6.246094-6.246094-16.375 0-22.621094l5.65625-5.664062-56.335938-56.351563c-22.324219-14.933594-48.359375-23.367187-75.199219-24.363281l-111.679687-4.132813 105.894531 47.285157c12.300781 6.171875 23.53125 14.277343 33.265625 24l2.265625 2.265625-33.945313 33.945312 5.65625 5.652344 45.253907 45.257812 5.65625 5.65625 16.96875-16.96875c6.25-6.25 16.382812-6.25 22.632812 0l6.625 6.625c3 3 4.683594 7.070313 4.6875 11.3125v20.6875c0 4.242188 1.6875 8.3125 4.6875 11.3125l17.945313 17.941407 67.878906-67.878907-17.945312-17.945312c-3.003907-3.011719-7.085938-4.707031-11.34375-4.703125zm0 0" fill="#9bc9ff"/><path d="m288.414062 121.515625 45.253907 45.257813zm0 0" fill="#9bc9ff"/><path d="m486.40625 149.796875-17.945312-17.945313c-4.488282-4.515624-10.601563-7.046874-16.96875-7.03125h-20.6875c-2.121094.003907-4.15625-.835937-5.65625-2.335937l-6.625-6.632813c-1.5-1.5-2.34375-3.535156-2.34375-5.660156 0-2.121094.84375-4.15625 2.34375-5.660156l5.65625-5.652344c3.125-3.125 3.125-8.191406 0-11.3125l-56.390626-56.351562c-.371093-.371094-.78125-.703125-1.214843-.992188-23.550781-15.753906-51.011719-24.652344-79.320313-25.707031l-111.679687-4.132813c-3.832031-.144531-7.230469 2.449219-8.09375 6.183594-.867188 3.734375 1.035156 7.558594 4.539062 9.117188l105.601563 47.136718c10.097656 5.070313 19.4375 11.53125 27.734375 19.199219l-28.214844 28.21875c-3.125 3.121094-3.125 8.1875 0 11.3125l-265.914063 265.847657c-15.15625 15.695312-14.941406 40.640624.488282 56.070312 15.429687 15.429688 40.378906 15.648438 56.074218.488281l265.878907-265.871093c3.125 3.121093 8.1875 3.121093 11.3125 0l16.976562-16.96875c3.164063-3.027344 8.148438-3.027344 11.3125 0l6.621094 6.625c1.507813 1.496093 2.351563 3.53125 2.347656 5.65625v20.6875c-.023437 6.367187 2.511719 12.480468 7.03125 16.96875l17.933594 17.941406c1.5 1.503906 3.539063 2.347656 5.660156 2.347656 2.125 0 4.160157-.84375 5.660157-2.347656l67.882812-67.878906c1.5-1.5 2.34375-3.535157 2.34375-5.660157s-.84375-4.160156-2.34375-5.660156zm-429.921875 282.847656c-9.375 9.375-24.570313 9.375-33.945313 0-9.371093-9.371093-9.371093-24.570312 0-33.945312l265.875-265.871094 33.941407 33.945313zm356.375-220.617187-12.269531-12.285156c-1.496094-1.503907-2.339844-3.535157-2.34375-5.65625v-20.6875c.015625-6.371094-2.515625-12.480469-7.035156-16.96875l-6.621094-6.632813c-9.375-9.367187-24.566406-9.367187-33.9375 0l-11.320313 11.3125-45.253906-45.257813 28.285156-28.285156c3.125-3.125 3.125-8.1875 0-11.3125l-2.261719-2.265625c-10.433593-10.394531-22.472656-19.039062-35.65625-25.597656l-68.234374-30.488281 70.449218 2.605468c25.09375.925782 49.453125 8.738282 70.398438 22.585938l50.136718 50.136719c-9.351562 9.378906-9.351562 24.5625 0 33.941406l6.632813 6.632813c4.492187 4.511718 10.601563 7.042968 16.96875 7.023437h20.6875c2.121094.007813 4.152344.851563 5.65625 2.34375l12.289063 12.289063zm0 0" fill="#1e81ce"/></svg>