<svg height="480pt" viewBox="-48 0 480 480" width="480pt" xmlns="http://www.w3.org/2000/svg"><g fill="#9bc9ff"><path d="m112 200h-8c-14.21875.03125-28.269531-3.113281-41.121094-9.199219-2.304687-1.074219-4.546875-2.273437-6.71875-3.601562l6.6875 18.921875c6.058594 17.128906 9.152344 35.164062 9.152344 53.335937v180.542969c0 17.671875 14.328125 32 32 32h16c17.671875 0 32-14.328125 32-32v-181.121094c.003906-17.796875 2.980469-35.46875 8.800781-52.285156l8.960938-25.953125c-2.386719 1.929687-4.898438 3.691406-7.523438 5.28125-15.136719 9.210937-32.515625 14.082031-50.238281 14.078125zm0 248c-4.417969 0-8-3.582031-8-8s3.582031-8 8-8 8 3.582031 8 8-3.582031 8-8 8zm0 0"/><path d="m120 440c0 4.417969-3.582031 8-8 8s-8-3.582031-8-8 3.582031-8 8-8 8 3.582031 8 8zm0 0"/><path d="m336 232h40v-15.574219l-16-16.425781 8-14.191406v-129.808594c0-26.507812-21.492188-48-48-48s-48 21.492188-48 48v129.160156l8 14.839844-16 17.0625v14.9375zm0 0"/></g><path d="m112 456c-8.835938 0-16-7.164062-16-16s7.164062-16 16-16 16 7.164062 16 16-7.164062 16-16 16zm0-16" fill="#1e81ce"/><path d="m160 0c-4.417969 0-8 3.582031-8 8v64c-.027344 22.082031-17.917969 39.972656-40 40h-8c-22.082031-.027344-39.972656-17.917969-40-40v-64c0-4.417969-3.582031-8-8-8-30.914062.0351562-55.9648438 25.085938-56 56v48c.0234375 36.125 18.804688 69.644531 49.601562 88.527344l5.75 16.257812c5.746094 16.273438 8.671876 33.410156 8.648438 50.671875v180.542969c.027344 22.082031 17.917969 39.972656 40 40h16c22.082031-.027344 39.972656-17.917969 40-40v-181.121094c-.007812-16.90625 2.8125-33.695312 8.34375-49.671875l8.265625-23.902343c24.964844-19.578126 39.5-49.578126 39.390625-81.304688v-48c-.035156-30.914062-25.085938-55.9648438-56-56zm-6.785156 204c-6.101563 17.652344-9.21875 36.203125-9.214844 54.878906v181.121094c0 13.253906-10.746094 24-24 24h-16c-13.253906 0-24-10.746094-24-24v-180.542969c.011719-19.078125-3.238281-38.015625-9.601562-56l-.390626-1.105469h.214844c3.210938 1.105469 6.472656 2.046876 9.777344 2.824219.992188.238281 1.984375.425781 2.984375.632813 2.496094.503906 5.007813.925781 7.542969 1.246094 1.015625.128906 2.023437.28125 3.039062.378906 3.449219.34375 6.921875.566406 10.402344.566406h8c3.304688 0 6.597656-.214844 9.871094-.527344.761718-.074218 1.511718-.144531 2.265625-.234375 3.199219-.375 6.398437-.871093 9.597656-1.542969.359375-.078124.703125-.183593 1.066406-.261718 2.917969-.648438 5.796875-1.449219 8.65625-2.355469.671875-.207031 1.34375-.414063 2.015625-.636719 3.066406-1.035156 6.082032-2.207031 9.046875-3.511718.167969-.082032.34375-.128907.511719-.203126zm46.785156-100c.089844 27.785156-13.039062 53.957031-35.367188 70.496094-2.074218 1.671875-4.257812 3.203125-6.535156 4.582031-13.898437 8.441406-29.839844 12.910156-46.097656 12.921875h-8c-13.003906.039062-25.851562-2.832031-37.601562-8.398438-1.96875-.925781-3.886719-1.953124-5.75-3.074218-.160157-.09375-.3125-.167969-.472657-.269532-27.308593-15.683593-44.15625-44.765624-44.175781-76.257812v-48c.019531-19 13.386719-35.375 32-39.199219v55.199219c.035156 30.914062 25.085938 55.964844 56 56h8c30.914062-.035156 55.964844-25.085938 56-56v-55.199219c18.613281 3.824219 31.980469 20.199219 32 39.199219zm0 0" fill="#1e81ce"/><path d="m381.726562 210.839844-11.816406-12.136719 5.058594-8.976563c.675781-1.195312 1.03125-2.542968 1.03125-3.917968v-129.808594c0-30.929688-25.070312-56-56-56s-56 25.070312-56 56v129.160156c0 1.328125.328125 2.632813.960938 3.800782l5.261718 9.765624-12.054687 12.867188c-1.390625 1.480469-2.167969 3.4375-2.167969 5.46875v14.9375c0 4.417969 3.582031 8 8 8h32v176c-2.351562 0-4.585938 1.035156-6.105469 2.832031s-2.171875 4.167969-1.78125 6.488281l8 48c.644531 3.855469 3.980469 6.679688 7.886719 6.679688h32c3.90625 0 7.242188-2.824219 7.886719-6.679688l8-48c.390625-2.320312-.261719-4.691406-1.78125-6.488281s-3.753907-2.832031-6.105469-2.832031v-176h32c4.417969 0 8-3.582031 8-8v-15.574219c0-2.089843-.816406-4.09375-2.273438-5.585937zm-52.503906 253.160156h-18.445312l-5.328125-32h29.101562zm-17.222656-48v-176h16v176zm56-192h-96v-3.769531l13.832031-14.757813c2.355469-2.511718 2.839844-6.242187 1.207031-9.273437l-7.039062-13.054688v-127.144531c0-22.089844 17.910156-40 40-40s40 17.910156 40 40v127.703125l-6.96875 12.367187c-1.742188 3.097657-1.238281 6.96875 1.242188 9.515626l13.726562 14.085937zm0 0" fill="#1e81ce"/></svg>