<svg height="480pt" viewBox="-16 0 480 480.00043" width="480pt" xmlns="http://www.w3.org/2000/svg"><path d="m432 309.441406v-69.441406c.03125-84-50.460938-159.773438-128-192.078125v-7.921875c-.027344-8.824219-7.175781-15.972656-16-16h-48c-.066406-8.808594-7.191406-15.933594-16-16-8.824219.027344-15.972656 7.175781-16 16h-48c-8.824219.027344-15.972656 7.175781-16 16v7.921875c-77.539062 32.304687-128.03125 108.078125-128 192.078125v69.441406c-5.214844 10.777344-7.949219 22.585938-8 34.558594 0 70.71875 96.71875 128 216 128s216-57.28125 216-128c-.050781-11.972656-2.785156-23.78125-8-34.558594zm0 0" fill="#9bc9ff"/><g fill="#1e81ce"><path d="m440 307.679688v-67.679688c.15625-85.316406-50.035156-162.691406-128-197.335938v-2.664062c0-13.253906-10.746094-24-24-24h-41.449219c-1.136719-3.339844-3.035156-6.371094-5.542969-8.855469-4.457031-4.601562-10.601562-7.1835935-17.007812-7.144531-10.132812.0429688-19.148438 6.445312-22.527344 16h-41.472656c-13.253906 0-24 10.746094-24 24v2.664062c-77.964844 34.644532-128.15625 112.019532-128 197.335938v67.679688c-5.230469 11.398437-7.9609375 23.78125-8 36.320312 0 74.992188 100.488281 136 224 136s224-61.007812 224-136c-.039062-12.539062-2.769531-24.921875-8-36.320312zm-216 156.320312c-114.6875 0-208-53.832031-208-120 .0625-8.898438 1.789062-17.707031 5.097656-25.96875 1.816406-1.476562 2.882813-3.6875 2.902344-6.03125v-72c-.117188-76.363281 43.371094-146.09375 112-179.582031v139.582031c0 4.417969 3.582031 8 8 8s8-3.582031 8-8v-160c0-4.417969 3.582031-8 8-8h40v200c0 4.417969 3.582031 8 8 8s8-3.582031 8-8v-208c0-4.417969 3.582031-8 8-8 2.15625-.003906 4.214844.882812 5.695312 2.449219 1.492188 1.457031 2.324219 3.464843 2.304688 5.550781v208c0 4.417969 3.582031 8 8 8s8-3.582031 8-8v-200h40c4.417969 0 8 3.582031 8 8v160c0 4.417969 3.582031 8 8 8s8-3.582031 8-8v-139.582031c68.628906 33.488281 112.117188 103.21875 112 179.582031v69.441406c.007812 1.1875.28125 2.355469.800781 3.421875 4.691407 9.714844 7.152344 20.351563 7.199219 31.136719 0 66.167969-93.3125 120-208 120zm0 0"/><path d="m224 400c-89.511719 0-138.230469-37.671875-143.472656-53.382812-.613282-1.847657-.535156-3.855469.226562-5.648438.0625-.152344.292969-.671875.375-.800781 1.558594-3.125 4.964844-4.878907 8.414063-4.328125 3.449219.550781 6.144531 3.273437 6.65625 6.730468 5.464843 9.183594 47.121093 41.429688 127.800781 41.429688 82.441406 0 124.144531-33.671875 128.113281-42 .550781-2.355469 2.152344-4.332031 4.34375-5.359375 3.84375-1.867187 8.472657-.300781 10.398438 3.511719.082031.144531.3125.664062.375.800781.761719 1.792969.839843 3.800781.226562 5.648437-5.226562 15.726563-53.945312 53.398438-143.457031 53.398438zm0 0"/></g></svg>