<svg height="480pt" viewBox="0 0 480 480" width="480pt" xmlns="http://www.w3.org/2000/svg"><g fill="#9bc9ff"><path d="m40 472h400c17.671875 0 32-14.328125 32-32v-400c0-17.671875-14.328125-32-32-32h-400c-17.671875 0-32 14.328125-32 32v400c0 17.671875 14.328125 32 32 32zm200-416c101.621094 0 184 82.378906 184 184s-82.378906 184-184 184-184-82.378906-184-184 82.378906-184 184-184zm0 0"/><path d="m240 424c101.621094 0 184-82.378906 184-184s-82.378906-184-184-184-184 82.378906-184 184 82.378906 184 184 184zm-152-184c-.09375-80.914062 63.148438-147.75 143.945312-152.128906 80.792969-4.375 150.886719 55.238281 159.535157 135.691406 8.648437 80.449219-47.171875 153.597656-127.050781 166.496094-79.878907 12.894531-155.882813-38.972656-172.988282-118.058594-2.285156-10.511719-3.4375-21.242188-3.441406-32zm0 0"/><path d="m272 208c0 17.671875-14.328125 32-32 32s-32-14.328125-32-32h-56l.351562 64h176l-.351562-64zm0 0"/><path d="m152 208h-60.558594c-4.589844 21.085938-4.589844 42.914062 0 64h60.910156zm0 0"/></g><path d="m440 480h-400c-22.082031-.027344-39.9726562-17.917969-40-40v-400c.0273438-22.082031 17.917969-39.9726562 40-40h400c22.082031.0273438 39.972656 17.917969 40 40v400c-.027344 22.082031-17.917969 39.972656-40 40zm-400-464c-13.253906 0-24 10.746094-24 24v400c0 13.253906 10.746094 24 24 24h400c13.253906 0 24-10.746094 24-24v-400c0-13.253906-10.746094-24-24-24zm0 0" fill="#1e81ce"/><path d="m240 48c-106.039062 0-192 85.960938-192 192s85.960938 192 192 192 192-85.960938 192-192c-.125-105.988281-86.011719-191.875-192-192zm0 368c-97.203125 0-176-78.796875-176-176s78.796875-176 176-176 176 78.796875 176 176c-.109375 97.15625-78.84375 175.890625-176 176zm0 0" fill="#1e81ce"/><path d="m396.382812 206.328125c-15.855468-73.6875-81.003906-126.308594-156.378906-126.308594s-140.523437 52.621094-156.378906 126.308594c-2.40625 11.0625-3.621094 22.351563-3.625 33.671875 0 2.976562.097656 5.953125.265625 8.921875 3.242187 60.132813 39.980469 113.351563 95.058594 137.707031 55.078125 24.355469 119.167969 15.71875 165.835937-22.34375 46.667969-38.0625 68.007813-99.109375 55.222656-157.957031zm-60.070312 57.671875-.265625-48h45.714844c2.984375 15.859375 2.984375 32.140625 0 48zm-238.074219 0c-.335937-1.945312-.695312-3.886719-.941406-5.847656-.183594-1.425782-.410156-2.847656-.554687-4.28125-.445313-4.613282-.742188-9.246094-.742188-13.871094s.296875-9.265625.742188-13.878906c.144531-1.425782.363281-2.832032.546874-4.25.253907-1.96875.613282-3.910156.949219-5.871094h45.808594l.265625 48zm62.074219 0-.265625-48h40.753906c3.785157 18.644531 20.175781 32.039062 39.199219 32.039062s35.414062-13.394531 39.199219-32.039062h40.855469l.265624 48zm57.160156-48h45.054688c-3.339844 9.585938-12.378906 16.007812-22.527344 16.007812s-19.1875-6.421874-22.527344-16.007812zm22.527344-120c64.011719.257812 120.238281 42.5625 138.214844 104h-276.429688c17.972656-61.4375 74.203125-103.75 138.214844-104zm0 288c-64.011719-.257812-120.238281-42.5625-138.214844-104h276.429688c-17.972656 61.4375-74.203125 103.75-138.214844 104zm0 0" fill="#1e81ce"/></svg>