<svg height="489pt" viewBox="0 -50 489.5825 489" width="489pt" xmlns="http://www.w3.org/2000/svg"><path d="m126.570312 36.355469-90.503906 90.503906c-37.496094 37.492187-37.496094 98.277344 0 135.769531l90.503906 90.511719c37.488282 37.492187 98.277344 37.492187 135.765626 0l158.402343-158.402344-158.402343-158.398437c-37.496094-37.488282-98.28125-37.480469-135.765626.015625zm134.796876 225.304687c-36.953126 36.949219-96.863282 36.949219-133.816407-.003906-36.949219-36.953125-36.949219-96.863281 0-133.816406 36.953125-36.953125 96.863281-36.953125 133.816407-.003906 36.953124 36.957031 36.953124 96.867187 0 133.824218zm0 0" fill="#9bc9ff"/><g fill="#1e81ce"><path d="m487.242188 168.804688-20.289063-20.28125c-3.125-3.121094-8.1875-3.121094-11.3125 0l-34.910156 34.914062-152.738281-152.738281c-40.644532-40.542969-106.433594-40.542969-147.078126 0l-90.503906 90.503906c-40.546875 40.644531-40.546875 106.4375 0 147.082031l90.503906 90.511719c40.644532 40.542969 106.433594 40.542969 147.078126 0l193.304687-193.304687 14.625 14.625c3.121094 3.125 8.1875 3.125 11.316406.003906 3.125-3.125 3.125-8.191406.003907-11.316406zm-230.5625 178.679687c-34.386719 34.3125-90.058594 34.3125-124.445313 0l-90.511719-90.511719c-34.3125-34.386718-34.3125-90.0625 0-124.449218l90.511719-90.511719c34.382813-34.316407 90.0625-34.316407 124.445313 0l152.738281 152.738281zm0 0"/><path d="m194.449219 297.371094c-48.972657.007812-91.128907-34.582032-100.6875-82.609375-9.558594-48.03125 16.140625-96.125 61.386719-114.871094 45.242187-18.742187 97.425781-2.914063 124.632812 37.804687 27.210938 40.714844 21.863281 94.984376-12.765625 129.613282-19.199219 19.3125-45.332031 30.140625-72.566406 30.0625zm0-189.207032c-39.203125 0-73.519531 26.332032-83.660157 64.199219-10.144531 37.867188 6.414063 77.824219 40.367188 97.421875 33.953125 19.59375 76.835938 13.9375 104.546875-13.789062 24.785156-24.765625 32.203125-62.023438 18.789063-94.390625-13.410157-32.371094-45.007813-53.464844-80.042969-53.441407zm0 0"/></g></svg>