<svg height="480pt" viewBox="-72 0 480 480" width="480pt" xmlns="http://www.w3.org/2000/svg"><path d="m304 216v-48h-272v48zm0 0" fill="#9bc9ff"/><path d="m40 296h256v128h-256zm0 0" fill="#9bc9ff"/><path d="m168 0c-92.738281.105469-167.894531 75.261719-168 168v80c0 4.417969 3.582031 8 8 8s8-3.582031 8-8h16v224c0 4.417969 3.582031 8 8 8h256c4.417969 0 8-3.582031 8-8v-224h16c0 4.417969 3.582031 8 8 8s8-3.582031 8-8v-80c-.105469-92.738281-75.261719-167.894531-168-168zm128 208h-256v-32h256zm-248 16h240v64h-240zm240 192h-240v-112h240zm-240 48v-32h240v32zm272-232h-16v-8c4.417969 0 8-3.582031 8-8v-48c0-4.417969-3.582031-8-8-8h-272c-4.417969 0-8 3.582031-8 8v48c0 4.417969 3.582031 8 8 8v8h-16v-64c0-83.949219 68.050781-152 152-152s152 68.050781 152 152zm0 0" fill="#1e81ce"/></svg>