<svg height="480pt" viewBox="0 0 480 480" width="480pt" xmlns="http://www.w3.org/2000/svg"><g fill="#9bc9ff"><path d="m24 80h8v-32h-8c-8.835938 0-16 7.164062-16 16s7.164062 16 16 16zm0 0"/><path d="m448 80v-32h-32v32zm0 0"/><path d="m200 456c0 8.835938 7.164062 16 16 16h16c8.835938 0 16-7.164062 16-16v-160h-48zm0 0"/></g><path d="m456 56v-8c0-4.417969-3.582031-8-8-8h-24c-.027344-22.082031-17.917969-39.9726562-40-40h-320c-22.082031.0273438-39.972656 17.917969-40 40-13.253906 0-24 10.746094-24 24s10.746094 24 24 24c.027344 22.082031 17.917969 39.972656 40 40h320c22.082031-.027344 39.972656-17.917969 40-40h24c4.417969 0 8-3.582031 8-8v-8c4.417969 0 8 3.582031 8 8v67.609375c0 3.644531-2.46875 6.832031-6 7.742187l-224 57.808594c-10.582031 2.730469-17.984375 12.269532-18 23.199219v51.640625h-16c-4.417969 0-8 3.582031-8 8v160c0 13.253906 10.746094 24 24 24h16c13.253906 0 24-10.746094 24-24v-160c0-4.417969-3.582031-8-8-8h-16v-51.609375c0-3.644531 2.46875-6.832031 6-7.742187l224-57.808594c10.582031-2.730469 17.984375-12.269532 18-23.199219v-67.640625c0-13.253906-10.746094-24-24-24zm-440 8c0-4.417969 3.582031-8 8-8v16c-4.417969 0-8-3.582031-8-8zm392 24c0 13.253906-10.746094 24-24 24h-320c-13.253906 0-24-10.746094-24-24v-48c0-13.253906 10.746094-24 24-24h320c13.253906 0 24 10.746094 24 24zm32-16h-16v-16h16zm-200 384c0 4.417969-3.582031 8-8 8h-16c-4.417969 0-8-3.582031-8-8v-152h32zm0 0" fill="#1e81ce"/></svg>