<svg height="480pt" viewBox="-120 0 480 480.00026" width="480pt" xmlns="http://www.w3.org/2000/svg"><path d="m72 136c-35.347656 0-64 28.652344-64 64h224c0-35.347656-28.652344-64-64-64zm0 0" fill="#9bc9ff"/><path d="m80 112v24h80v-24c0-8.835938-7.164062-16-16-16h-48c-8.835938 0-16 7.164062-16 16zm0 0" fill="#9bc9ff"/><path d="m239.398438 203.046875c.339843-.871094.523437-1.796875.539062-2.734375 0-.105469.0625-.199219.0625-.3125 0-.265625-.039062-.519531-.039062-.800781-.46875-39.421875-32.535157-71.148438-71.960938-71.199219v-16c0-13.253906-10.746094-24-24-24h-16v-80c0-4.417969-3.582031-8-8-8s-8 3.582031-8 8v80h-16c-13.253906 0-24 10.746094-24 24v16c-39.441406.027344-71.53125 31.761719-72 71.199219v.800781c0 .113281.0546875.199219.0625.3125.015625.9375.199219 1.863281.539062 2.734375v.066406l112 271.925781c1.230469 3 4.15625 4.960938 7.398438 4.960938 3.246094 0 6.167969-1.960938 7.398438-4.960938l112-271.925781zm-151.398438-91.046875c0-4.417969 3.582031-8 8-8h48c4.417969 0 8 3.582031 8 8v16h-64zm-16 32h96c27.824219.035156 51.417969 20.464844 55.433594 48h-206.867188c4.015625-27.535156 27.609375-47.964844 55.433594-48zm48 306.992188-30.878906-74.992188h61.757812zm37.464844-90.992188h-74.929688l-62.589844-152h200.109376zm0 0" fill="#1e81ce"/></svg>