<svg height="492pt" viewBox="0 0 492.16967 492" width="492pt" xmlns="http://www.w3.org/2000/svg"><path d="m399.28125 48.644531-22.640625 22.640625c-84.683594-82.335937-219.792969-81.386718-303.3125 2.128906-83.515625 83.515626-84.464844 218.628907-2.128906 303.308594l-22.640625 22.640625 84.878906 84.882813 350.722656-350.722656zm-271.523438 79.199219c53.136719-53.039062 139.1875-53.039062 192.320313 0l-192.320313 192.320312c-53.039062-53.136718-53.039062-139.183593 0-192.320312zm0 0" fill="#9bc9ff"/><g fill="#1e81ce"><path d="m122.101562 122.1875c-56.140624 56.269531-56.140624 147.363281 0 203.632812 3.125 3.121094 8.191407 3.121094 11.3125 0l192.320313-192.320312c3.125-3.125 3.125-8.1875 0-11.3125-56.265625-56.140625-147.363281-56.140625-203.632813 0zm5.824219 186.480469c-44.667969-50.6875-42.253906-127.363281 5.519531-175.140625 47.769532-47.773438 124.449219-50.191406 175.136719-5.523438zm0 0"/><path d="m489.816406 127.867188-84.882812-84.878907c-3.121094-3.125-8.1875-3.125-11.308594 0l-17.074219 17.070313c-88.277343-82.101563-225.699219-79.609375-310.941406 5.632812-85.246094 85.246094-87.734375 222.667969-5.632813 310.945313l-17.074218 17.070312c-3.121094 3.125-3.121094 8.1875 0 11.3125l84.882812 84.878907c3.121094 3.125 8.1875 3.125 11.308594 0l350.722656-350.695313c1.507813-1.5 2.351563-3.539063 2.351563-5.667969 0-2.125-.84375-4.164062-2.351563-5.667968zm-39.601562 28.28125-28.3125-28.3125-11.3125 11.3125 28.3125 28.3125-22.621094 22.632812-39.632812-39.632812-11.3125 11.3125 39.632812 39.628906-22.648438 22.601562-28.3125-28.3125-11.3125 11.3125 28.3125 28.3125-22.632812 22.632813-39.625-39.632813-11.3125 11.3125 39.625 39.632813-28.261719 28.34375-28.3125-28.3125-11.3125 11.3125 28.34375 28.277343-22.632812 22.625-39.632813-39.625-11.335937 11.320313 39.632812 39.625-28.289062 28.289063-28.308594-28.3125-11.3125 11.3125 28.277344 28.285156-22.621094 22.632812-39.632813-39.632812-11.3125 11.3125 39.632813 39.632812-22.632813 22.625-28.3125-28.3125-11.3125 11.3125 28.3125 28.320313-22.601562 22.640625-73.519531-73.570313 16.9375-16.960937c3.121093-3.121094 3.121093-8.1875 0-11.308594-53.476563-52.355469-74.703125-129.394531-55.59375-201.75 19.113281-72.351562 75.617187-128.863281 147.96875-147.980469 72.351562-19.117187 149.394531 2.105469 201.753906 55.578125 3.121094 3.121094 8.1875 3.121094 11.3125 0l16.984375-16.9375 73.597656 73.601563zm0 0"/></g></svg>