<svg height="484pt" viewBox="0 -4 484.93213 484" width="484pt" xmlns="http://www.w3.org/2000/svg"><path d="m130.964844 252.503906 244.125-244.128906 22.640625 22.640625-244.128907 244.125zm0 0" fill="#9bc9ff"/><path d="m189.015625 401.0625v-90.515625l-35.410156-35.40625-32.472657-32.472656-113.132812 113.136719 113.132812 113.136718zm-135.769531-45.257812 67.886718-67.878907 35.882813 35.878907v64l-35.882813 35.886718zm0 0" fill="#9bc9ff"/><g fill="#1e81ce"><path d="m126.789062 282.269531c-3.121093-3.125-8.1875-3.125-11.3125 0l-67.886718 67.878907c-3.121094 3.125-3.121094 8.1875 0 11.3125l67.886718 67.886718c3.125 3.125 8.191407 3.125 11.3125 0l35.882813-35.878906c1.5-1.5 2.34375-3.535156 2.34375-5.65625v-64c0-2.121094-.84375-4.15625-2.34375-5.65625zm22.226563 102.230469-27.882813 27.871094-56.574218-56.566406 56.574218-56.566407 27.882813 27.878907zm0 0"/><path d="m484.832031 108.859375c-.425781-2.355469-1.894531-4.394531-4-5.535156l-100.082031-100.605469c-3.171875-3.003906-8.136719-3.003906-11.3125 0l-238.472656 238.46875-4.175782-4.175781c-3.171874-3-8.136718-3-11.3125 0l-113.132812 113.136719c-3.125 3.125-3.125 8.1875 0 11.3125l113.132812 113.152343c3.125 3.121094 8.191407 3.121094 11.3125 0l67.882813-67.878906c1.503906-1.503906 2.347656-3.546875 2.34375-5.671875v-23.007812l25.679687-4.363282c3.351563-.566406 5.980469-3.191406 6.550782-6.542968l3.679687-21.664063 21.6875-3.671875c3.355469-.566406 5.984375-3.195312 6.554688-6.550781l3.679687-21.664063 21.679688-3.703125c3.347656-.570312 5.96875-3.191406 6.542968-6.539062l3.703126-21.6875 21.695312-3.703125c3.355469-.570313 5.976562-3.199219 6.546875-6.550782l3.703125-21.695312 21.695312-3.699219c3.347657-.570312 5.96875-3.195312 6.535157-6.542969l3.703125-21.695312 21.664062-3.679688c3.351563-.570312 5.976563-3.195312 6.546875-6.542968l3.703125-21.699219 21.71875-3.710937c3.34375-.570313 5.964844-3.191407 6.539063-6.535157l3.71875-21.726562 21.726562-3.722657c3.34375-.570312 5.960938-3.1875 6.535157-6.527343l3.746093-21.769531 19.792969-3.398438c.101562 0 .207031.0625.320312.0625 1.523438-.050781 3-.542969 4.253907-1.414062.242187-.144532.457031-.289063.679687-.449219.242188-.140625.476563-.292969.695313-.464844.175781-.167969.234375-.398437.394531-.574219 1.746094-1.789062 2.542969-4.300781 2.144531-6.769531zm-109.738281-89.175781 11.328125 11.328125-232.800781 232.800781-11.328125-11.328125zm-194.078125 378.066406-59.882813 59.878906-101.824218-101.824218 101.824218-101.824219 59.882813 59.878906zm267.238281-290.714844c-3.335937.578125-5.945312 3.191406-6.519531 6.53125l-3.742187 21.757813-21.738282 3.71875c-3.339844.578125-5.957031 3.195312-6.527344 6.539062l-3.726562 21.726563-21.722656 3.710937c-3.339844.578125-5.957032 3.195313-6.527344 6.539063l-3.703125 21.695312-21.664063 3.679688c-3.351562.570312-5.972656 3.195312-6.542968 6.542968l-3.707032 21.695313-21.703124 3.703125c-3.347657.570312-5.972657 3.195312-6.542969 6.546875l-3.703125 21.6875-21.6875 3.710937c-3.347656.570313-5.972656 3.191407-6.546875 6.535157l-3.703125 21.6875-21.6875 3.699219c-3.351563.570312-5.976563 3.199218-6.542969 6.550781l-3.679687 21.664062-21.691407 3.703125c-3.347656.570313-5.972656 3.195313-6.542969 6.542969l-3.679687 21.664063-17.40625 2.945312v-51.28125c0-2.121094-.84375-4.15625-2.34375-5.65625l-29.753906-29.75 232.800781-232.800781 62.222656 62.6875zm0 0"/></g></svg>