<svg height="480pt" viewBox="-15 0 479 480" width="480pt" xmlns="http://www.w3.org/2000/svg"><g fill="#9bc9ff"><path d="m208.5 264h-40v15.574219l16 16.425781-8 14.191406v113.808594c0 26.507812 21.492188 48 48 48s48-21.492188 48-48v-113.160156l-8-14.839844 16-17.0625v-14.9375zm0 0"/><path d="m48.5 264h-40v15.574219l16 16.425781-8 14.191406v113.808594c0 26.507812 21.492188 48 48 48s48-21.492188 48-48v-113.160156l-8-14.839844 16-17.0625v-14.9375zm0 0"/><path d="m328.5 279.574219 16 16.425781-8 14.191406v113.808594c0 26.507812 21.492188 48 48 48s48-21.492188 48-48v-113.160156l-8-14.839844 16-17.0625v-14.9375h-112zm0 0"/></g><path d="m280.5 256h-32v-256h-48v256h-32c-4.417969 0-8 3.582031-8 8v15.574219c-.003906 2.09375.8125 4.105469 2.273438 5.601562l11.816406 12.121094-5.058594 8.976563c-.675781 1.199218-1.03125 2.550781-1.03125 3.925781v113.800781c0 30.929688 25.070312 56 56 56s56-25.070312 56-56v-113.160156c.003906-1.324219-.328125-2.628906-.960938-3.792969l-5.261718-9.773437 12.054687-12.875c1.390625-1.480469 2.167969-3.4375 2.167969-5.46875v-14.929688c0-4.417969-3.582031-8-8-8zm-64-240h16v32h-16zm0 48h16v192h-16zm56 211.769531-13.832031 14.757813c-2.355469 2.511718-2.839844 6.242187-1.207031 9.273437l7.039062 13.054688v111.144531c0 22.089844-17.910156 40-40 40s-40-17.910156-40-40v-111.703125l6.96875-12.367187c1.742188-3.097657 1.238281-6.96875-1.242188-9.515626l-13.726562-14.085937v-4.328125h96zm0 0" fill="#1e81ce"/><path d="m120.5 256h-32v-160h6.246094l10.082031-40.320312-18.558594-55.679688h-43.539062l-18.558594 55.679688 10.082031 40.320312h6.246094v160h-32c-4.417969 0-8 3.582031-8 8v15.574219c-.003906 2.09375.8125 4.105469 2.273438 5.601562l11.816406 12.121094-5.058594 8.976563c-.675781 1.195312-1.03125 2.546874-1.03125 3.917968v113.808594c0 30.929688 25.070312 56 56 56s56-25.070312 56-56v-113.160156c.003906-1.324219-.328125-2.628906-.960938-3.792969l-5.261718-9.773437 12.054687-12.875c1.390625-1.480469 2.167969-3.4375 2.167969-5.46875v-14.929688c0-4.417969-3.582031-8-8-8zm-66.230469-240h2.230469v32c0 4.417969 3.582031 8 8 8s8-3.582031 8-8v-32h2.230469l13.441406 40.320312-5.917969 23.679688h-35.507812l-5.917969-23.679688zm2.230469 80h16v160h-16zm56 179.769531-13.832031 14.757813c-2.355469 2.511718-2.839844 6.242187-1.207031 9.273437l7.039062 13.054688v111.144531c0 22.089844-17.910156 40-40 40s-40-17.910156-40-40v-111.703125l6.96875-12.367187c1.75-3.101563 1.246094-6.984376-1.242188-9.53125l-13.726562-14.070313v-4.328125h96zm0 0" fill="#1e81ce"/><path d="m440.5 256h-32v-160h5.769531l10.605469-31.824219-18.34375-64.175781h-44.0625l-18.34375 64.175781 10.605469 31.824219h5.769531v160h-32c-4.417969 0-8 3.582031-8 8v15.574219c-.003906 2.09375.8125 4.105469 2.273438 5.601562l11.816406 12.121094-5.058594 8.976563c-.675781 1.199218-1.03125 2.550781-1.03125 3.925781v113.800781c0 30.929688 25.070312 56 56 56s56-25.070312 56-56v-113.160156c.003906-1.324219-.328125-2.628906-.960938-3.792969l-5.261718-9.773437 12.054687-12.875c1.390625-1.480469 2.167969-3.4375 2.167969-5.46875v-14.929688c0-4.417969-3.582031-8-8-8zm-65.96875-240h19.9375l13.65625 47.824219-5.394531 16.175781h-36.460938l-5.394531-16.175781zm1.96875 80h16v160h-16zm56 179.769531-13.832031 14.757813c-2.355469 2.511718-2.839844 6.242187-1.207031 9.273437l7.039062 13.054688v111.144531c0 22.089844-17.910156 40-40 40s-40-17.910156-40-40v-111.703125l6.96875-12.367187c1.742188-3.097657 1.238281-6.96875-1.242188-9.515626l-13.726562-14.085937v-4.328125h96zm0 0" fill="#1e81ce"/></svg>