<svg height="476pt" viewBox="0 0 476 476.95188" width="476pt" xmlns="http://www.w3.org/2000/svg"><path d="m274.339844 225.707031-.28125.289063 28 28 11.015625-11.015625.296875-22.929688 15.695312-4.382812 125.730469-125.71875c18.746094-18.746094 18.746094-49.144531 0-67.890625s-49.144531-18.746094-67.890625 0l-125.261719 125.273437-4.800781 16.152344-23.382812.75-10.5625 10.5625 28.570312 28.566406.285156-.277343zm0 0" fill="#9bc9ff"/><path d="m251.433594 203.371094.285156-.285156 22.625 22.628906-.28125.28125zm0 0" fill="#9bc9ff"/><path d="m460.453125 16.402344c-21.871094-21.871094-57.332031-21.871094-79.203125 0l-125.269531 125.25c-.9375.9375-1.628907 2.089844-2.007813 3.359375l-3.203125 10.640625-17.597656.566406c-2.03125.066406-3.960937.902344-5.402344 2.335938l-10.558593 10.5625c-3.121094 3.121093-3.121094 8.1875 0 11.3125l22.921874 22.910156-179.832031 179.839844-21.464843 10.738281c-1.113282.550781-2.078126 1.359375-2.824219 2.351562l-33.9375 45.253907c-2.386719 3.1875-2.07031275 7.640624.746093 10.457031l22.621094 22.632812c2.816406 2.808594 7.265625 3.125 10.449219.742188l45.265625-33.945313c.996094-.742187 1.800781-1.710937 2.359375-2.820312l10.726563-21.472656 179.816406-179.816407 22.34375 22.351563c3.125 3.121094 8.1875 3.121094 11.3125 0l11.015625-11.015625c1.476562-1.476563 2.316406-3.46875 2.34375-5.550781l.21875-16.9375 9.917969-2.769532c1.328124-.367187 2.539062-1.074218 3.511718-2.046875l125.730469-125.734375c21.828125-21.886718 21.828125-57.308594 0-79.195312zm-390.402344 413.34375-38.199219 28.640625-12.800781-12.796875 28.640625-38.1875 15.785156-7.894532 14.46875 14.472657zm17.601563-28.679688-11.320313-11.308594 175.101563-175.082031 11.3125 11.3125zm361.472656-316.796875-124.234375 124.261719-13.671875 3.816406c-3.417969.957032-5.800781 4.050782-5.847656 7.601563l-.257813 19.671875-3.054687 3.0625-67.886719-67.886719 2.664063-2.664063 20.214843-.65625c3.4375-.109374 6.417969-2.402343 7.410157-5.695312l4.253906-14.21875 123.855468-123.847656c15.621094-15.621094 40.949219-15.625 56.574219-.003906 15.621094 15.621093 15.625 40.949218.003907 56.574218zm0 0" fill="#1e81ce"/></svg>