<svg height="480pt" viewBox="-36 0 480 480.03" width="480pt" xmlns="http://www.w3.org/2000/svg"><g fill="#9bc9ff"><path d="m160.015625 152v272h16l16 48 16-48h16v-416h-64zm0 0"/><path d="m376.015625 408v-400h-64v400l-24-8v48h24l32 24 32-24h24v-48zm0 0"/><path d="m8.015625 152v272l32 48 32-48v-416h-64zm0 0"/></g><path d="m224.015625 0h-64c-4.417969 0-8 3.582031-8 8v416c0 4.417969 3.582031 8 8 8h10.230469l14.175781 42.527344c1.082031 3.285156 4.144531 5.503906 7.601563 5.503906 3.457031 0 6.519531-2.21875 7.597656-5.503906l14.160156-42.527344h10.234375c4.417969 0 8-3.582031 8-8v-416c0-4.417969-3.582031-8-8-8zm-8 316.6875-48 48v-33.375l48-48zm0-56-48 48v-33.375l48-48zm0-56-48 48v-41.375l48-48zm0-64-48 48v-33.375l48-48zm0-124.6875v68.6875l-48 48v-116.6875zm-8 400c-3.445313 0-6.503906 2.203125-7.59375 5.472656l-8.40625 25.230469-8.410156-25.230469c-1.085938-3.269531-4.144531-5.472656-7.589844-5.472656h-8v-28.6875l48-48v76.6875zm0 0" fill="#1e81ce"/><path d="m404.6875 393.503906c-2.082031-1.507812-4.765625-1.914062-7.199219-1.089844l-13.472656 4.480469v-388.894531c0-4.417969-3.582031-8-8-8h-64c-4.417969 0-8 3.582031-8 8v388.894531l-13.472656-4.480469c-2.433594-.824218-5.117188-.421874-7.199219 1.089844-2.089844 1.503906-3.328125 3.921875-3.328125 6.496094v48c0 4.417969 3.582031 8 8 8h21.335937l29.863282 22.398438c2.84375 2.136718 6.753906 2.136718 9.601562 0l29.863282-22.398438h21.335937c4.417969 0 8-3.582031 8-8v-48c0-2.574219-1.238281-4.992188-3.328125-6.496094zm-84.671875-238.191406 48-48v33.375l-48 48zm0 56 48-48v41.375l-48 48zm0 64 48-48v33.375l-48 48zm0 56 48-48v33.375l-48 48zm48-315.3125v68.6875l-48 48v-116.6875zm24 424h-16c-1.730469 0-3.414063.5625-4.800781 1.601562l-27.199219 20.398438-27.199219-20.398438c-1.386718-1.039062-3.070312-1.601562-4.800781-1.601562h-16v-28.894531l13.472656 4.480469c2.4375.808593 5.117188.402343 7.203125-1.101563 2.085938-1.5 3.320313-3.914063 3.324219-6.484375v-20.6875l48-48v68.6875c0 2.570312 1.238281 4.984375 3.324219 6.484375 2.085937 1.503906 4.765625 1.910156 7.203125 1.101563l13.472656-4.480469zm0 0" fill="#1e81ce"/><path d="m72.015625 0h-64c-4.417969 0-8 3.582031-8 8v416c0 1.578125.46875 3.125 1.34375 4.441406l32 48c1.484375 2.222656 3.980469 3.558594 6.65625 3.558594s5.171875-1.335938 6.65625-3.558594l32-48c.875-1.316406 1.339844-2.863281 1.34375-4.441406v-416c0-4.417969-3.582031-8-8-8zm-8 316.6875-48 48v-33.375l48-48zm0-56-48 48v-33.375l48-48zm0-56-48 48v-41.375l48-48zm0-64-48 48v-33.375l48-48zm0-124.6875v68.6875l-48 48v-116.6875zm-24 441.601562-24-36v-34.289062l48-48v82.289062zm0 0" fill="#1e81ce"/></svg>