<svg height="479pt" viewBox="-15 0 479 479.99116" width="479pt" xmlns="http://www.w3.org/2000/svg"><g fill="#9bc9ff"><path d="m264.496094 272h-24v-33.601562l24-14.398438h-24v-184h-32v159.519531c0 .480469-24 24.480469-24 24.480469h24v33.601562l-24 14.398438h24v33.601562l-24 14.398438h24v33.601562l-24 14.398438h24v40l16 64 16-64v-26.320312l24-13.679688h-24v-33.601562l24-14.398438h-24v-33.601562zm0 0"/><path d="m432.496094 272h-24v-33.601562l24-14.398438h-24v-184h-32v159.550781c0 .449219-24 24.449219-24 24.449219h24v33.601562l-24 14.398438h24v33.601562l-24 14.398438h24v33.601562l-24 14.398438h24v40l16 64 16-64v-26.289062l24-13.710938h-24v-33.601562l24-14.398438h-24v-33.601562zm0 0"/><path d="m40.496094 408 16 64 16-64v-400h-32zm0 0"/><path d="m440.496094 40c0-17.671875-14.328125-32-32-32h-32c-17.671875 0-32 14.328125-32 32zm0 0"/><path d="m272.496094 8h-96c0 17.671875 14.328125 32 32 32h32c17.671875 0 32-14.328125 32-32zm0 0"/></g><path d="m.496094 0v16h32v392c0 .652344.078125 1.304688.238281 1.9375l16 64c.894531 3.558594 4.09375 6.054688 7.761719 6.054688 3.667968 0 6.867187-2.496094 7.757812-6.054688l16-64c.160156-.632812.242188-1.285156.242188-1.9375v-392h32v-16zm64 407.015625-8 32-8-32v-391.015625h16zm0 0" fill="#1e81ce"/><path d="m448.496094 48v-8c-.027344-22.082031-17.921875-39.9726562-40-40h-32c-22.082032.0273438-39.972656 17.917969-40 40v8h32v148.449219c-4.113282 4.277343-14.328125 14.566406-21.65625 21.894531-2.289063 2.289062-2.972656 5.730469-1.734375 8.71875s4.15625 4.9375 7.390625 4.9375h16v21.070312l-20.121094 12.074219c-3.078125 1.851563-4.546875 5.53125-3.585938 8.992188.960938 3.464843 4.113282 5.863281 7.707032 5.863281h16v21.070312l-20.121094 12.074219c-3.078125 1.851563-4.546875 5.53125-3.585938 8.992188.960938 3.464843 4.113282 5.863281 7.707032 5.863281h16v21.070312l-20.121094 12.074219c-3.078125 1.851563-4.546875 5.53125-3.585938 8.992188.960938 3.464843 4.113282 5.863281 7.707032 5.863281h16v32c0 .652344.078125 1.304688.238281 1.9375l16 64c.894531 3.558594 4.09375 6.054688 7.761719 6.054688 3.667968 0 6.867187-2.496094 7.757812-6.054688l16-64c.160156-.632812.242188-1.285156.242188-1.9375v-21.648438l20-11.40625c.261718-.199218.511718-.417968.742187-.648437 1.238281-.964844 2.195313-2.242187 2.769531-3.703125.160157-.867188.324219-1.730469.488282-2.59375-.023438-.152344-.058594-.304688-.097656-.457031-.046876-.527344-.152344-1.046875-.3125-1.550781-.109376-.527344-.28125-1.039063-.503907-1.527344-.0625-.136719-.0625-.296875-.140625-.433594-.199218-.265625-.421875-.519531-.65625-.75-.320312-.453125-.683594-.871094-1.089844-1.25-.789062-.617188-1.664062-1.125-2.589843-1.503906-.539063-.171875-1.09375-.285156-1.65625-.335938-.316407-.082031-.632813-.148437-.953125-.191406h-16v-21.070312l20.121094-12.074219c.238281-.191407.464843-.402344.679687-.625.445313-.320313.851563-.691407 1.214844-1.101563.625-.789062 1.121093-1.667968 1.472656-2.609375.167969-.519531.277344-1.054687.328125-1.597656.082031-.304687.140625-.613281.183594-.921875 0-.191406-.097656-.351562-.105469-.535156-.050781-.542969-.160156-1.078125-.320313-1.601563-.125-.519531-.304687-1.027343-.535156-1.511719-.050781-.171874-.113281-.34375-.183594-.511718-.191406-.238282-.402343-.46875-.625-.679688-.320312-.449218-.695312-.855468-1.109374-1.214844-.382813-.308593-.796876-.578124-1.234376-.800781-.898437-.558593-1.917968-.890625-2.976562-.96875-.296875-.078125-.601562-.136719-.910156-.175781h-16v-21.070312l20.121094-12.074219c.238281-.191407.464843-.402344.679687-.625.445313-.320313.851563-.691407 1.214844-1.101563.625-.789062 1.121093-1.667968 1.472656-2.609375.167969-.519531.277344-1.054687.328125-1.597656.082031-.304687.140625-.613281.183594-.921875 0-.191406-.097656-.351562-.105469-.535156-.050781-.542969-.160156-1.078125-.320313-1.601563-.125-.519531-.304687-1.027343-.535156-1.511719-.050781-.171874-.113281-.34375-.183594-.511718-.191406-.238282-.402343-.46875-.625-.679688-.320312-.449218-.695312-.855468-1.109374-1.214844-.382813-.304687-.792969-.574218-1.226563-.800781-.894531-.554687-1.910156-.882812-2.960937-.960937-.304688-.082032-.617188-.144532-.933594-.183594h-16v-21.070312l20.121094-12.074219c.238281-.191407.464843-.402344.679687-.625.445313-.320313.851563-.691407 1.214844-1.101563.625-.789062 1.121093-1.667968 1.472656-2.609375.167969-.519531.277344-1.054687.328125-1.597656.082031-.304687.140625-.613281.183594-.921875 0-.191406-.097656-.351562-.105469-.535156-.050781-.542969-.160156-1.078125-.320313-1.601563-.125-.519531-.304687-1.027343-.535156-1.511719-.050781-.171874-.113281-.34375-.183594-.511718-.191406-.238282-.402343-.46875-.625-.679688-.320312-.449218-.695312-.855468-1.109374-1.214844-.382813-.308593-.796876-.578124-1.234376-.800781-.898437-.558593-1.917968-.890625-2.976562-.96875-.296875-.078125-.601562-.136719-.910156-.175781h-16v-168zm-72-32h32c10.167968.011719 19.230468 6.417969 22.632812 16h-77.265625c3.402344-9.582031 12.464844-15.988281 22.632813-16zm8 216h16v1.871094l-16 9.601562zm16 175.015625-8 32-8-32v-2.398437l16-9.144532zm0-29.945313-16 9.144532v-28.085938l16-9.601562zm0-47.199218-16 9.601562v-29.34375l16-9.601562zm0-48-16 9.601562v-29.34375l16-9.601562zm0-65.871094h-16v-168h16zm0 0" fill="#1e81ce"/><path d="m168.496094 8c.023437 19 13.386718 35.371094 32 39.199219v149.242187c-4.105469 4.269532-14.328125 14.566406-21.65625 21.902344-2.289063 2.289062-2.972656 5.730469-1.734375 8.71875s4.15625 4.9375 7.390625 4.9375h16v21.070312l-20.121094 12.074219c-3.078125 1.851563-4.546875 5.53125-3.585938 8.992188.960938 3.464843 4.113282 5.863281 7.707032 5.863281h16v21.070312l-20.121094 12.074219c-3.078125 1.851563-4.546875 5.53125-3.585938 8.992188.960938 3.464843 4.113282 5.863281 7.707032 5.863281h16v21.070312l-20.121094 12.074219c-3.078125 1.851563-4.546875 5.53125-3.585938 8.992188.960938 3.464843 4.113282 5.863281 7.707032 5.863281h16v32c0 .652344.078125 1.304688.238281 1.9375l16 64c.894531 3.558594 4.09375 6.054688 7.761719 6.054688 3.667968 0 6.867187-2.496094 7.757812-6.054688l16-64c.160156-.632812.242188-1.285156.242188-1.9375v-21.601562l19.960937-11.40625c3.195313-1.777344 4.78125-5.5 3.847657-9.035157-.9375-3.539062-4.152344-5.992187-7.808594-5.957031h-16v-21.070312l20.121094-12.074219c3.078124-1.851563 4.546874-5.53125 3.585937-8.992188-.960937-3.464843-4.113281-5.863281-7.707031-5.863281h-16v-21.070312l20.121094-12.074219c3.078124-1.851563 4.546874-5.53125 3.585937-8.992188-.960937-3.464843-4.113281-5.863281-7.707031-5.863281h-16v-21.070312l20.121094-12.074219c3.078124-1.851563 4.546874-5.53125 3.585937-8.992188-.960937-3.464843-4.113281-5.863281-7.707031-5.863281h-16v-168.800781c18.609375-3.828125 31.976562-20.199219 32-39.199219v-8h-112zm48 224h16v1.871094l-16 9.601562zm16 175.015625-8 32-8-32v-2.398437l16-9.144532zm0-29.976563-16 9.160157v-28.070313l16-9.601562zm0-47.199218-16 9.601562v-29.3125l16-9.601562zm0-48-16 9.601562v-29.3125l16-9.601562zm-16-65.839844v-168h16v168zm46.632812-200c-3.402344 9.582031-12.464844 15.988281-22.632812 16h-32c-10.167969-.011719-19.230469-6.417969-22.632813-16zm0 0" fill="#1e81ce"/></svg>