<svg height="480pt" viewBox="0 0 480 480.00092" width="480pt" xmlns="http://www.w3.org/2000/svg"><path d="m8 472h464v-464zm368-96h-136.234375l136.234375-136.230469zm0 0" fill="#9bc9ff"/><g fill="#1e81ce"><path d="m475.0625.609375c-2.988281-1.238281-6.433594-.5546875-8.71875 1.734375l-464 464c-2.2890625 2.289062-2.972656 5.730469-1.734375 8.71875s4.152344 4.9375 7.390625 4.9375h464c4.417969 0 8-3.582031 8-8v-464c0-3.234375-1.949219-6.152344-4.9375-7.390625zm-447.75 463.390625 436.6875-436.6875v84.6875h-40v16h40v32h-56v16h56v32h-40v16h40v40h-56v16h56v32h-40v16h40v40h-56v16h56v32h-40v16h40v32zm0 0"/><path d="m379.0625 232.375c-2.988281-1.238281-6.433594-.550781-8.71875 1.738281l-136.234375 136.230469c-2.285156 2.289062-2.96875 5.730469-1.730469 8.71875 1.238282 2.988281 4.152344 4.9375 7.386719 4.9375h136.234375c4.417969 0 8-3.582031 8-8v-136.230469c0-3.234375-1.949219-6.152343-4.9375-7.394531zm-11.0625 135.625h-108.921875l108.921875-108.917969zm0 0"/></g></svg>