<svg height="480pt" viewBox="-76 0 480 480" width="480pt" xmlns="http://www.w3.org/2000/svg"><g fill="#9bc9ff"><path d="m24 48h48v296h-48zm0 0"/><path d="m56 8h-16c-17.671875 0-32 14.328125-32 32v8h80v-8c0-17.671875-14.328125-32-32-32zm0 0"/><path d="m280 48v-8c0-17.671875-14.328125-32-32-32h-16c-17.671875 0-32 14.328125-32 32v8zm0 0"/><path d="m283.265625 350.054688c-11.582031-5.199219-19.097656-16.640626-19.265625-29.335938v-272.71875h-48v272.71875c-.167969 12.695312-7.683594 24.136719-19.265625 29.335938-22.4375 10.566406-36.75 33.144531-36.734375 57.945312v24h160v-24c.015625-24.800781-14.296875-47.378906-36.734375-57.945312zm0 0"/></g><path d="m56 0h-16c-22.082031.0273438-39.9726562 17.917969-40 40v8c0 4.417969 3.582031 8 8 8h8v280h-8c-4.417969 0-8 3.582031-8 8v128c0 4.417969 3.582031 8 8 8h80c4.417969 0 8-3.582031 8-8v-128c0-4.417969-3.582031-8-8-8h-8v-280h8c4.417969 0 8-3.582031 8-8v-8c-.027344-22.082031-17.917969-39.9726562-40-40zm24 464h-64v-112h64zm-16-128h-32v-280h32zm-48-296c0-13.253906 10.746094-24 24-24h16c13.253906 0 24 10.746094 24 24zm0 0" fill="#1e81ce"/><path d="m286.671875 342.824219c-8.789063-3.871094-14.519531-12.503907-14.671875-22.105469v-264.71875h8c4.417969 0 8-3.582031 8-8v-8c-.027344-22.082031-17.917969-39.9726562-40-40h-16c-22.082031.0273438-39.972656 17.917969-40 40v8c0 4.417969 3.582031 8 8 8h8v264.71875c-.152344 9.601562-5.882812 18.234375-14.671875 22.105469-25.183594 11.949219-41.261719 37.300781-41.328125 65.175781v64c0 4.417969 3.582031 8 8 8h160c4.417969 0 8-3.582031 8-8v-64c-.066406-27.875-16.144531-53.226562-41.328125-65.175781zm-54.671875-326.824219h16c13.253906 0 24 10.746094 24 24h-64c0-13.253906 10.746094-24 24-24zm-31.855469 341.289062c14.417969-6.476562 23.738281-20.761718 23.855469-36.570312v-264.71875h32v264.71875c.117188 15.808594 9.4375 30.09375 23.855469 36.570312 19.585937 9.300782 32.089843 29.027344 32.144531 50.710938v16h-144v-16c.054688-21.683594 12.558594-41.410156 32.144531-50.710938zm111.855469 106.710938h-144v-24h144zm0 0" fill="#1e81ce"/></svg>