<svg height="482pt" viewBox="-1 0 482 482.26232" width="482pt" xmlns="http://www.w3.org/2000/svg"><g fill="#9bc9ff"><path d="m197.601562 259.242188 138.105469-138.109376 22.625 22.628907-138.105469 138.105469zm0 0"/><path d="m361.273438 95.566406-25.601563 25.601563 22.632813 22.628906 25.597656-25.597656c-10.953125-3.117188-19.515625-11.679688-22.628906-22.632813zm0 0"/><path d="m397.929688 13.652344-5.65625-5.652344-22.625 22.628906 6.503906 6.503906 33.09375 33.089844 39.59375 39.601563 22.632812-22.625-5.65625-5.65625zm0 0"/><path d="m376.152344 37.132812 33.09375 33.089844zm0 0"/><path d="m174.972656 281.871094 22.625-22.628906 22.628906 22.628906-22.628906 22.628906zm0 0"/><path d="m129.671875 327.167969-16.929687 39.558593 39.5625-16.929687 45.296874-45.292969-22.632812-22.632812zm0 0"/></g><path d="m477.128906 81.535156-79.191406-79.191406c-3.125-3.125-8.191406-3.125-11.3125 0l-22.632812 22.628906c-3.125 3.125-3.125 8.191406 0 11.3125l1.863281 1.863282c-11.289063 15.917968-16.058594 35.546874-13.335938 54.867187l-22.472656 22.460937-138.101563 138.113282-16.96875 16.96875-50.921874-50.914063c-3.121094-3.121093-8.1875-3.121093-11.3125 0l-68.117188 68.097657c-28.632812 28.65625-46.457031 77.96875-44.320312 122.710937l2.632812 55.199219c.1875 3.867187 3.113281 7.042968 6.949219 7.546875l59.792969 7.808593c6.40625.839844 12.859374 1.257813 19.320312 1.253907 40.554688-.070313 79.4375-16.191407 108.144531-44.839844l63-71c2.835938-3.171875 2.695313-8.007813-.320312-11.007813l-50.914063-50.917968 16.96875-16.96875 138.113282-138.105469 22.472656-22.480469c3.503906.738282 7.074218 1.128906 10.65625 1.160156 15.816406-.511718 31.164062-5.503906 44.253906-14.398437l1.808594 1.808594c3.125 3.121093 8.1875 3.121093 11.3125 0l22.632812-22.632813c1.507813-1.503906 2.359375-3.542968 2.359375-5.671875 0-2.128906-.851562-4.171875-2.359375-5.671875zm-233.945312 279.863282-57.671875 65.015624c-29.933594 29.734376-71.902344 44.011719-113.757813 38.695313l-53.160156-6.949219-2.3125-48.472656c-1.9375-40.511719 14.015625-84.96875 39.679688-110.632812l62.398437-62.441407 45.257813 45.257813-39.640626 39.640625c-.71875.722656-1.292968 1.574219-1.695312 2.511719l-16.855469 39.550781c-1.257812 2.996093-.578125 6.453125 1.71875 8.75 2.296875 2.300781 5.753907 2.980469 8.75 1.722656l39.554688-16.929687c.933593-.402344 1.785156-.976563 2.511719-1.695313l39.640624-39.640625zm-68.207032-68.214844 11.3125 11.3125-38.554687 38.550781-19.773437 8.464844 8.464843-19.777344zm22.625 0-11.3125-11.3125 11.3125-11.3125 11.308594 11.3125zm22.621094-22.625-11.3125-11.3125 126.792969-126.800782 11.320313 11.320313zm138.105469-138.113282-11.304687-11.304687 11.878906-11.894531c.160156.238281.386718.433594.546875.671875 2.65625 4.015625 6.101562 7.457031 10.117187 10.113281.234375.160156.417969.375.648438.527344zm27.894531-21.917968c-8.40625-2.339844-14.964844-8.921875-17.269531-17.335938-3.1875-15.042968-.128906-30.734375 8.472656-43.480468l52.335938 52.335937c-12.761719 8.617187-28.476563 11.675781-43.539063 8.480469zm62.648438-12-.800782-.800782-66.261718-66.25-.800782-.796874 11.320313-11.320313 67.878906 67.878906zm0 0" fill="#1e81ce"/></svg>