<svg height="480pt" viewBox="0 0 480 480" width="480pt" xmlns="http://www.w3.org/2000/svg"><g fill="#9bc9ff"><path d="m336 104h-328v168h112v-32h48v32h144v-32h48v32h112v-168zm0 0"/><path d="m360 320h-48v-16h-144v16h-48v-48h-80v200h128v-96h144v96h128v-200h-80zm0 0"/><path d="m168 272h144v32h-144zm0 0"/></g><path d="m472 96h-128v-72c0-13.253906-10.746094-24-24-24h-160c-13.253906 0-24 10.746094-24 24v72h-128c-4.417969 0-8 3.582031-8 8v168c0 4.417969 3.582031 8 8 8h24v192c0 4.417969 3.582031 8 8 8h400c4.417969 0 8-3.582031 8-8v-192h24c4.417969 0 8-3.582031 8-8v-168c0-4.417969-3.582031-8-8-8zm-320-72c0-4.417969 3.582031-8 8-8h160c4.417969 0 8 3.582031 8 8v72h-16v-56c0-4.417969-3.582031-8-8-8h-128c-4.417969 0-8 3.582031-8 8v56h-16zm144 72h-112v-48h112zm-120 368v-80h128v80zm256 0h-112v-88c0-4.417969-3.582031-8-8-8h-144c-4.417969 0-8 3.582031-8 8v88h-112v-184h64v40c0 4.417969 3.582031 8 8 8h48c4.417969 0 8-3.582031 8-8v-8h128v8c0 4.417969 3.582031 8 8 8h48c4.417969 0 8-3.582031 8-8v-40h64zm-272-200h-32v-16h32zm0 16v32h-32v-32zm192-16h-32v-16h32zm0 16v32h-32v-32zm-48 16h-128v-16h128zm160-32h-96v-24c0-4.417969-3.582031-8-8-8h-48c-4.417969 0-8 3.582031-8 8v24h-128v-24c0-4.417969-3.582031-8-8-8h-48c-4.417969 0-8 3.582031-8 8v24h-96v-152h448zm0 0" fill="#1e81ce"/><path d="m112 152c0 4.417969 3.582031 8 8 8h240c4.417969 0 8-3.582031 8-8s-3.582031-8-8-8h-240c-4.417969 0-8 3.582031-8 8zm0 0" fill="#1e81ce"/></svg>