<svg height="480pt" viewBox="-88 0 480 480" width="480pt" xmlns="http://www.w3.org/2000/svg"><g fill="#9bc9ff"><path d="m220 216h-136l-22 104h180zm0 0"/><path d="m176 8h-48l-22 104h92zm0 0"/><path d="m296 440c0-8.835938-7.164062-16-16-16h-256c-8.835938 0-16 7.164062-16 16v32h288zm0 0"/></g><path d="m280 416h-9.511719l-86.65625-409.65625c-.78125-3.699219-4.050781-6.34765625-7.832031-6.34375h-48c-3.78125-.00390625-7.050781 2.644531-7.832031 6.34375l-86.65625 409.65625h-9.511719c-13.253906 0-24 10.746094-24 24v32c0 4.417969 3.582031 8 8 8h288c4.417969 0 8-3.582031 8-8v-32c0-13.253906-10.746094-24-24-24zm-189.511719-192h123.023438l18.617187 88h-160.257812zm22-104h79.023438l18.617187 88h-116.257812zm22-104h35.023438l18.617187 88h-72.257812zm-66 312h167.023438l18.617187 88h-204.257812zm219.511719 136h-272v-24c0-4.417969 3.582031-8 8-8h256c4.417969 0 8 3.582031 8 8zm0 0" fill="#1e81ce"/></svg>