<svg height="483pt" viewBox="0 0 483.04463 483" width="483pt" xmlns="http://www.w3.org/2000/svg"><path d="m451.683594 31.339844c-31.285156-31.199219-81.917969-31.199219-113.203125 0l-83.679688 83.679687-223.117187 223.203125c-30.320313 31.390625-29.886719 81.285156.972656 112.144532 30.859375 30.859374 80.753906 31.292968 112.144531.972656l87.578125-87.519532 219.304688-219.277343c31.144531-31.308594 31.144531-81.894531 0-113.203125zm-26.714844 60.648437c-9.371094 9.375-24.566406 9.378907-33.941406.003907-9.375-9.371094-9.375-24.570313 0-33.941407 9.375-9.375 24.570312-9.371093 33.941406.003907 9.371094 9.371093 9.371094 24.5625 0 33.933593zm0 0" fill="#9bc9ff"/><path d="m391.035156 58.054688c-9.375 9.371093-9.378906 24.566406-.003906 33.941406 9.371094 9.375 24.570312 9.375 33.941406 0 9.375-9.375 9.371094-24.570313-.003906-33.941406-9.371094-9.371094-24.5625-9.371094-33.933594 0zm0 0" fill="#9bc9ff"/><g fill="#1e81ce"><path d="m105.210938 377.8125c-3.125-3.121094-8.1875-3.121094-11.3125 0l-16.976563 16.976562-16.96875-16.976562c-2.007813-2.078125-4.980469-2.914062-7.78125-2.179688-2.796875.730469-4.980469 2.914063-5.710937 5.710938-.734376 2.796875.101562 5.773438 2.179687 7.78125l16.960937 16.976562-16.960937 16.96875c-2.078125 2.007813-2.914063 4.980469-2.179687 7.777344.730468 2.800782 2.914062 4.984375 5.710937 5.714844 2.800781.734375 5.773437-.101562 7.78125-2.179688l16.96875-16.960937 16.976563 16.96875c3.136718 3.03125 8.128906 2.988281 11.214843-.097656 3.085938-3.085938 3.128907-8.078125.097657-11.214844l-16.976563-16.96875 16.976563-16.976563c1.5-1.5 2.34375-3.535156 2.34375-5.660156 0-2.121094-.84375-4.160156-2.34375-5.660156zm0 0"/><path d="m408 107.019531c12.941406 0 24.609375-7.796875 29.558594-19.753906 4.953125-11.953125 2.214844-25.714844-6.933594-34.867187-12.65625-12.097657-32.589844-12.097657-45.246094 0-9.148437 9.152343-11.886718 22.914062-6.933594 34.867187 4.949219 11.957031 16.617188 19.753906 29.554688 19.753906zm-11.308594-43.308593c4.015625-4.160157 9.964844-5.828126 15.558594-4.363282 5.59375 1.460938 9.960938 5.832032 11.425781 11.425782 1.464844 5.59375-.203125 11.542968-4.363281 15.558593-6.328125 6.046875-16.292969 6.046875-22.621094 0-6.246094-6.246093-6.246094-16.375 0-22.621093zm0 0"/><path d="m475.890625 396.171875-11.839844-15.871094c-1.292969-1.734375-3.234375-2.871093-5.378906-3.152343-2.144531-.277344-4.3125.320312-6.007813 1.664062l-11.015624 8.738281-8.40625-11.265625c-1.292969-1.734375-3.234376-2.871094-5.378907-3.152344-2.144531-.277343-4.308593.320313-6.003906 1.664063l-11.027344 8.738281-8.429687-11.273437c-1.292969-1.734375-3.234375-2.867188-5.378906-3.148438-2.144532-.277343-4.3125.324219-6.003907 1.667969l-11.019531 8.734375-8.414062-11.269531c-1.292969-1.734375-3.230469-2.871094-5.375-3.152344-2.144532-.269531-4.308594.328125-6.007813 1.664062l-11.023437 8.742188-8.425782-11.277344c-1.292968-1.734375-3.234375-2.871094-5.378906-3.148437-2.144531-.277344-4.3125.324219-6.003906 1.667969l-10.96875 8.734374-8.410156-11.269531c-1.289063-1.734375-3.230469-2.867187-5.371094-3.148437-2.144532-.28125-4.308594.316406-6.003906 1.660156l-11.09375 8.75-8.441407-11.289062c-1.292969-1.726563-3.230469-2.863282-5.371093-3.140626-2.140626-.28125-4.304688.316407-5.996094 1.65625l-11.066406 8.757813-5.40625-7.199219 206.09375-206.03125c34.277343-34.433594 34.277343-90.089844 0-124.519531-34.4375-34.242187-90.0625-34.242187-124.503907 0l-1.34375 1.316406h-243.726562c-27.574219-.085937-54.039063 10.859375-73.496094 30.402344l-11.917969 11.917969c-1.664062 1.664062-2.507812 3.972656-2.316406 6.3125.191406 2.34375 1.402344 4.480468 3.316406 5.847656l5.925782 4.242188c33.878906 24.316406 74.546874 37.359374 116.25 37.277343h109.992187l-209.480469 209.539063c-34.1875 33.878906-34.78125 88.949218-1.335937 123.5625 33.445312 34.609375 88.5 35.902344 123.535156 2.898437h323.765625c4.421875 0 8-3.578125 8-8v-48c-.027344-2.855469-1.601562-5.476562-4.109375-6.847656zm-455.554687-322.175781 5.242187-5.238282c16.460937-16.539062 38.851563-25.804687 62.183594-25.738281h227.726562l-64 64h-125.964843c-37.625.078125-74.355469-11.453125-105.1875-33.023437zm16.992187 371.679687c-13.515625-13.488281-21.113281-31.800781-21.113281-50.898437s7.597656-37.410156 21.113281-50.898438l306.800781-306.875c28.199219-27.753906 73.503906-27.574218 101.484375.398438 27.976563 27.976562 28.164063 73.28125.414063 101.484375l-306.5625 306.480469-.328125.328124c-13.488281 13.519532-31.804688 21.117188-50.902344 21.117188-19.101563 0-37.414063-7.597656-50.90625-21.117188zm127.113281-2.65625 70.480469-70.460937 5.375-4.25 8.503906 11.3125c1.292969 1.730468 3.230469 2.859375 5.371094 3.140625 2.140625.277343 4.304687-.320313 5.996094-1.660157l11.035156-8.753906 8.4375 11.289063c1.292969 1.730469 3.230469 2.863281 5.371094 3.144531s4.304687-.316406 6-1.65625l11.046875-8.75 8.421875 11.277344c1.296875 1.734375 3.234375 2.871094 5.378906 3.148437 2.144531.277344 4.3125-.324219 6.007813-1.667969l11.007812-8.734374 8.421875 11.277343c1.292969 1.730469 3.234375 2.867188 5.375 3.144531 2.144531.277344 4.308594-.320312 6.003906-1.664062l11.03125-8.742188 8.414063 11.269532c1.292968 1.734375 3.234375 2.871094 5.378906 3.152344s4.3125-.320313 6.003906-1.664063l11.027344-8.734375 8.414062 11.273438c1.292969 1.730468 3.234376 2.867187 5.378907 3.144531 2.144531.28125 4.3125-.320313 6.003906-1.667969l11.019531-8.734375 8.40625 11.265625c1.292969 1.734375 3.234375 2.871094 5.378906 3.148438 2.144532.28125 4.308594-.316407 6.003907-1.660157l11.023437-8.738281 7.839844 10.550781v36zm0 0"/></g></svg>