<svg height="472pt" viewBox="0 0 472 472.52704" width="472pt" xmlns="http://www.w3.org/2000/svg"><g fill="#9bc9ff"><path d="m417.632812 100.328125c-12.503906 12.503906-32.773437 12.503906-45.277343 0-12.503907-12.503906-12.503907-32.773437 0-45.277344l39.597656-39.601562c-27-13.484375-59.597656-8.203125-80.957031 13.121093l-9.523438 9.519532c-15.023437 14.984375-23.457031 35.339844-23.4375 56.558594.011719 3.777343.308594 7.546874.878906 11.28125 4.300782 29.964843 25.148438 54.9375 53.863282 64.519531s60.382812 2.136719 81.816406-19.238281l9.519531-9.523438c21.300781-21.371094 26.582031-53.953125 13.121094-80.957031zm0 0"/><path d="m298.914062 105.929688-5.28125 10.480468c-11.558593 23.066406-26.738281 44.132813-44.957031 62.398438l-64.082031 64.082031c-18.265625 18.21875-39.332031 33.398437-62.398438 44.957031l-6 3.042969c1.40625.261719 2.792969.609375 4.160157 1.039063 11.445312 3.191406 22.078125 8.78125 31.199219 16.398437 1.269531.960937 2.496093 1.976563 3.679687 3.039063.289063.214843.554687.457031.800781.722656.832032.683594 1.605469 1.433594 2.320313 2.238281.785156.734375 1.535156 1.507813 2.238281 2.320313.261719.25.5.515624.71875.800781 1.066406 1.183593 2.082031 2.410156 3.042969 3.679687 7.617187 9.121094 13.207031 19.753906 16.398437 31.199219.429688 1.363281.777344 2.753906 1.039063 4.160156l3.042969-6c11.558593-23.066406 26.738281-44.132812 44.957031-62.398437l64.082031-64.082032c18.265625-18.21875 39.332031-33.398437 62.398438-44.957031l10.480468-5.28125c-35.222656-4.929687-62.910156-32.617187-67.839844-67.839843zm0 0"/><path d="m164.355469 321.128906c-.960938-1.269531-1.976563-2.496094-3.042969-3.679687-.21875-.285157-.457031-.550781-.71875-.800781-.703125-.8125-1.453125-1.585938-2.238281-2.320313-.714844-.804687-1.488281-1.554687-2.320313-2.238281-.246094-.265625-.511718-.507813-.800781-.722656-1.183594-1.0625-2.410156-2.078126-3.679687-3.039063-9.121094-7.617187-19.753907-13.207031-31.199219-16.398437-1.367188-.429688-2.753907-.777344-4.160157-1.039063-38.277343-8.972656-77.859374 8.535156-96.976562 42.886719-19.117188 34.351562-13.128906 77.21875 14.671875 105.015625 27.796875 27.796875 70.664063 33.785156 105.015625 14.671875 34.351562-19.117188 51.859375-58.699219 42.886719-96.976563-.261719-1.40625-.609375-2.796875-1.039063-4.160156-3.191406-11.445313-8.78125-22.078125-16.398437-31.199219zm-55.203125 103.839844-48.476563-12.960938-12.960937-48.480468 35.4375-35.4375 48.480468 12.960937 12.960938 48.476563zm0 0"/></g><path d="m464.402344 57.167969c-1.148438-2.296875-3.328125-3.902344-5.863282-4.320313-2.535156-.414062-5.117187.414063-6.9375 2.226563l-39.597656 39.589843c-9.378906 9.382813-24.585937 9.382813-33.964844.003907-9.382812-9.375-9.382812-24.582031-.003906-33.960938l39.597656-39.601562c1.816407-1.816407 2.644532-4.394531 2.234376-6.929688-.410157-2.535156-2.011719-4.71875-4.304688-5.871093-30.074219-15.117188-66.457031-9.226563-90.222656 14.609374l-9.523438 9.519532c-16.558594 16.460937-25.84375 38.867187-25.78125 62.214844.023438 3.277343.242188 6.550781.664063 9.800781l-4.226563 8.382812c-11.167968 22.300781-25.835937 42.667969-43.453125 60.320313l-64.074219 64.066406c-17.664062 17.632812-38.046874 32.320312-60.367187 43.496094l-3.664063 1.855468c-44.882812-8.949218-89.835937 15.066407-107.351562 57.351563-17.511719 42.285156-2.710938 91.050781 35.355469 116.460937 38.0625 25.414063 88.777343 20.390626 121.117187-11.996093 22.789063-22.609375 32.613282-55.199219 26.117188-86.632813l1.867187-3.6875c11.167969-22.300781 25.835938-42.667968 43.453125-60.320312l64.074219-64.066406c17.660156-17.628907 38.035156-32.308594 60.351563-43.480469l8.390624-4.230469c3.359376.402344 6.738282.613281 10.121094.632812 23.230469.027344 45.507813-9.242187 61.863282-25.738281l9.519531-9.519531c23.722656-23.804688 29.597656-60.097656 14.609375-90.175781zm-311.710938 375.914062c-25.578125 25.597657-65.15625 30.839844-96.515625 12.78125-31.359375-18.054687-46.691406-54.914062-37.390625-89.886719 9.300782-34.972656 40.917969-59.347656 77.105469-59.4375 6.390625.003907 12.757813.757813 18.976563 2.238282 1.121093.214844 2.230468.496094 3.320312.847656 10.367188 2.875 19.996094 7.933594 28.246094 14.839844.191406.152344.671875.488281.878906.632812.210938.144532.570312.472656 1.363281 1.136719.328125.238281.640625.507813.925781.796875.398438.402344.84375.761719 1.320313 1.066406-.238281-.144531-.496094-.328125-.519531-.34375.210937.214844.433594.414063.671875.597656.476562.402344.925781.84375 1.335937 1.3125.195313.230469.410156.445313.640625.640626.574219.519531 1.078125 1.105468 1.832031 1.878906.242188.332031.507813.640625.800782.929687.429687.449219.835937.929688 1.207031 1.433594.246094.285156.519531.566406.6875.796875.203125.320312.425781.628906.664063.921875 6.921874 8.265625 11.988281 17.921875 14.855468 28.3125.335938 1.046875.605469 2.117187.800782 3.199219 0 .175781.070312.351562.113281.519531 6.460937 26.941406-1.625 55.300781-21.320313 74.785156zm135.527344-214.730469-64.097656 64.089844c-15.96875 16.007813-29.695313 34.109375-40.800782 53.808594-.253906-.5625-.605468-1.066406-.871093-1.601562-1.101563-2.261719-2.320313-4.464844-3.597657-6.625-.578124-.957032-1.105468-1.941407-1.714843-2.886719-1.953125-3.058594-4.089844-6-6.398438-8.800781-.472656-.679688-.988281-1.332032-1.542969-1.949219-.585937-.769531-1.210937-1.507813-1.875-2.210938-.242187-.300781-.507812-.585937-.796874-.847656-.800782-.910156-1.640626-1.808594-2.527344-2.640625-.828125-.894531-1.707032-1.738281-2.632813-2.527344-.25-.246094-.5625-.535156-.929687-.847656-.585938-.566406-1.203125-1.101562-1.847656-1.597656-.726563-.640625-1.484376-1.242188-2.273438-1.800782-2.800781-2.308593-5.738281-4.449218-8.796875-6.402343-.976563-.636719-2-1.191407-3.007813-1.78125-2.121093-1.257813-4.273437-2.449219-6.488281-3.53125-.5625-.277344-1.082031-.636719-1.65625-.902344 19.703125-11.101563 37.804688-24.828125 53.816407-40.800781l64.09375-64.085938c16.6875-16.730468 30.914062-35.746094 42.257812-56.472656.152344.382812.359375.734375.511719 1.113281.855469 2.007813 1.765625 4 2.765625 5.917969.410156.800781.867187 1.601562 1.304687 2.398438.871094 1.601562 1.777344 3.089843 2.738281 4.601562.519532.800781 1.046876 1.601562 1.597657 2.398438 1.039062 1.523437 2.144531 2.992187 3.289062 4.449218.519531.664063 1.023438 1.351563 1.601563 2.007813 1.71875 2.066406 3.511718 4.074219 5.429687 6 1.921875 1.929687 3.9375 3.714843 6 5.441406.65625.542969 1.335938 1.039063 2.007813 1.597656 1.457031 1.144531 2.9375 2.25 4.457031 3.296875.800781.546875 1.601563 1.066406 2.398437 1.601563 1.519532.96875 3.066407 1.878906 4.632813 2.75.800781.441406 1.550781.882812 2.34375 1.289062 1.976563 1.023438 4 1.960938 6.066406 2.832031.328125.136719.644531.320313.980469.457032-20.714844 11.34375-39.71875 25.574218-56.4375 42.261718zm167.589844-116.359374v.058593c-2.019532 12.890625-8.109375 24.796875-17.375 33.980469l-9.519532 9.523438c-19.269531 19.3125-47.8125 26.058593-73.691406 17.414062-25.878906-8.648438-44.632812-31.195312-48.421875-58.214844-.519531-3.339844-.785156-6.710937-.796875-10.089844-.050781-19.101562 7.546875-37.433593 21.09375-50.902343l9.519532-9.519531c15.941406-15.996094 39.324218-22.054688 61.023437-15.808594l-30.941406 30.960937c-15.628907 15.625-15.628907 40.964844 0 56.589844 15.625 15.628906 40.964843 15.628906 56.589843 0l30.960938-30.953125c2.511719 8.761719 3.046875 17.96875 1.558594 26.960938zm0 0" fill="#1e81ce"/><path d="m139.363281 338.984375c-.738281-2.765625-2.898437-4.925781-5.664062-5.664063l-48.480469-12.960937c-2.757812-.734375-5.703125.054687-7.71875 2.074219l-35.441406 35.441406c-2.019532 2.015625-2.808594 4.960938-2.074219 7.71875l12.960937 48.480469c.738282 2.765625 2.898438 4.925781 5.664063 5.664062l48.480469 12.957031c.671875.1875 1.367187.277344 2.0625.273438 2.125.007812 4.160156-.839844 5.65625-2.34375l35.441406-35.441406c2.019531-2.019532 2.808594-4.960938 2.070312-7.71875zm-32.601562 77.066406-39.527344-10.601562-10.601563-39.527344 28.914063-28.914063 39.550781 10.578126 10.578125 39.550781zm0 0" fill="#1e81ce"/></svg>