<svg height="490pt" viewBox="0 0 490 490.72" width="490pt" xmlns="http://www.w3.org/2000/svg"><path d="m417.769531 282.574219c2.277344-11.296875 10.367188-20.542969 21.261719-24.300781l38.6875-12.914063v-64l-61.4375 20.480469c-.882812-3.476563-1.867188-6.917969-2.953125-10.320313-3.667969-10.921875-1.289063-22.972656 6.265625-31.679687l27.007812-30.480469-32-55.4375-42.960937 48.476563c-2.507813-2.5625-5.089844-5.050782-7.746094-7.460938-8.644531-7.625-12.601562-19.261719-10.398437-30.578125l8.222656-39.878906-55.4375-32-12.960938 63.441406c-3.410156-.976563-6.875-1.847656-10.398437-2.609375-11.296875-2.28125-20.542969-10.371094-24.304687-21.265625l-12.898438-38.6875h-64l20.480469 61.441406c-3.476563.878907-6.917969 1.863281-10.320313 2.953125-10.921875 3.667969-22.972656 1.285156-31.679687-6.265625l-30.480469-27.007812-55.4375 32 48.480469 42.960937c-2.566407 2.503906-5.054688 5.085938-7.464844 7.742188-7.625 8.644531-19.261719 12.605468-30.578125 10.402344l-39.878906-8.226563-32 55.441406 63.441406 12.960938c-.976562 3.40625-1.847656 6.871093-2.609375 10.398437-2.28125 11.296875-10.371094 20.542969-21.265625 24.304688l-38.6875 12.894531v64l61.441406-20.480469c.878906 3.484375 1.863282 6.921875 2.953125 10.320313 3.667969 10.925781 1.285157 22.976562-6.265625 31.679687l-27.007812 30.480469 32 55.441406 42.960937-48.480469c2.507813 2.570313 5.085938 5.058594 7.742188 7.464844 8.648437 7.625 12.605469 19.257813 10.402343 30.574219l-8.226562 39.878906 55.441406 32 12.960938-63.4375c3.40625.976563 6.875 1.84375 10.398437 2.605469 11.292969 2.28125 20.539063 10.367188 24.304688 21.257812l12.894531 38.695313h64l-20.480469-61.4375c3.484375-.882813 6.925781-1.867187 10.320313-2.953125 10.925781-3.671875 22.976562-1.289062 31.679687 6.261719l30.480469 27.007812 55.441406-32-48.480468-42.957031c2.570312-2.507812 5.058593-5.089844 7.464843-7.746094 7.625-8.644531 19.261719-12.601562 30.574219-10.398437l39.882812 8.222656 32-55.4375-63.441406-12.960937c.976563-3.410157 1.84375-6.871094 2.609375-10.386719zm-172.050781 90.785156c-70.691406 0-128-57.308594-128-128s57.308594-128 128-128c70.695312 0 128 57.308594 128 128s-57.304688 128-128 128zm0 0" fill="#9bc9ff"/><path d="m277.71875 245.359375c0 17.671875-14.324219 32-32 32-17.671875 0-32-14.328125-32-32s14.328125-32 32-32c17.675781 0 32 14.328125 32 32zm0 0" fill="#9bc9ff"/><g fill="#1e81ce"><path d="m190.777344 490.71875-70.058594-40.429688 9.359375-45.535156c1.667969-8.542968-1.347656-17.324218-7.910156-23.042968-.65625-.597657-1.304688-1.191407-1.953125-1.800782l-44.75 50.503906-40.441406-70.046874 30.839843-34.792969c5.695313-6.582031 7.460938-15.699219 4.632813-23.933594-.273438-.800781-.535156-1.671875-.800782-2.503906l-63.976562 21.328125v-80.871094l44.167969-14.730469c8.230469-2.847656 14.324219-9.855469 16-18.398437.183593-.847656.371093-1.695313.570312-2.542969l-66.097656-13.507813 40.433594-70.054687 45.535156 9.359375c8.542969 1.660156 17.320313-1.355469 23.039063-7.910156.601562-.65625 1.191406-1.304688 1.800781-1.953125l-50.503907-44.75 70.046876-40.441407 34.792968 30.839844c6.585938 5.699219 15.703125 7.460938 23.9375 4.632813.796875-.273438 1.671875-.535157 2.503906-.800781l-21.328124-63.976563h80.871093l14.726563 44.167969c2.851562 8.226562 9.859375 14.320312 18.402344 16 .847656.183594 1.695312.367187 2.542968.570312l13.503906-66.097656 70.054688 40.433594-9.359375 45.535156c-1.664063 8.539062 1.351563 17.320312 7.914063 23.039062.65625.601563 1.300781 1.191407 1.949218 1.800782l44.753906-50.503906 40.4375 70.046874-30.839843 34.792969c-5.691407 6.585938-7.457031 15.699219-4.628907 23.933594.269532.800781.535157 1.675781.796876 2.507813l64-21.328126v80.871094l-44.167969 14.726563c-8.226563 2.847656-14.320313 9.855469-16 18.402343-.183594.847657-.367188 1.695313-.566407 2.542969l66.0625 13.488281-40.429687 70.054688-45.535156-9.359375c-8.542969-1.664063-17.324219 1.351563-23.042969 7.910156-.589844.648438-1.183594 1.296875-1.789062 1.945313l50.503906 44.753906-70.050782 40.4375-34.789062-30.839844c-6.582031-5.703125-15.703125-7.464844-23.9375-4.632812-.800781.273437-1.671875.539062-2.503906.800781l21.328125 64h-80.871094l-14.738281-44.167969c-2.84375-8.230468-9.851563-14.324218-18.398438-16-.847656-.183594-1.695312-.367187-2.542968-.566406zm60.710937-21.359375h47.128907l-19.6875-59.070313 8.34375-2.121093c3.320312-.800781 6.613281-1.785157 9.847656-2.816407 13.609375-4.585937 28.636718-1.578124 39.429687 7.894532l26.160157 23.203125 40.800781-23.570313-46.589844-41.3125 6.140625-6.007812c2.449219-2.394532 4.824219-4.855469 7.128906-7.390625 9.511719-10.757813 24.035156-15.636719 38.113282-12.800781l34.222656 7.03125 23.578125-40.796876-61.058594-12.472656 2.402344-8.320312c.933593-3.242188 1.75-6.527344 2.472656-9.855469 2.835937-14.078125 12.945313-25.582031 26.542969-30.199219l33.253906-11.160156v-47.128906l-59.070312 19.6875-2.121094-8.34375c-.800782-3.320313-1.785156-6.617188-2.816406-9.847656-4.582032-13.613282-1.574219-28.636719 7.898437-39.433594l23.199219-26.160156-23.570313-40.800782-41.308593 46.59375-6.007813-6.144531c-2.398437-2.449219-4.863281-4.824219-7.402344-7.128906-10.761719-9.507813-15.636719-24.03125-12.800781-38.109375l7-34.21875-40.796875-23.574219-12.472656 61.054687-8.320313-2.398437c-3.242187-.9375-6.527344-1.753906-9.855468-2.472656-14.078126-2.835938-25.582032-12.949219-30.203126-26.542969l-11.117187-33.265625h-47.128906l19.6875 59.074219-8.34375 2.117187c-3.320313.839844-6.617188 1.785157-9.847657 2.816407-13.613281 4.585937-28.636718 1.578124-39.433593-7.894532l-26.160157-23.199218-40.796874 23.566406 46.589843 41.3125-6.144531 6.007812c-2.445312 2.390625-4.824219 4.855469-7.136719 7.398438-9.5 10.769531-24.027343 15.648437-38.101562 12.800781l-34.214844-7-23.578125 40.800781 61.054688 12.472656-2.398438 8.320313c-.9375 3.199219-1.753906 6.527344-2.472656 9.855469-2.835938 14.074218-12.949219 25.578125-26.542969 30.199218l-33.265625 11.121094v47.128906l59.074219-19.691406 2.117187 8.34375c.84375 3.320313 1.785156 6.617188 2.816406 9.851563 4.585938 13.609375 1.578126 28.632812-7.894531 39.429687l-23.199219 26.160156 23.566407 40.800782 41.3125-46.59375 6.007812 6.144531c2.390625 2.449219 4.855469 4.824219 7.402344 7.128906 10.757813 9.511719 15.636719 24.035157 12.796875 38.113281l-7 34.214844 40.800781 23.574219 12.472657-61.054687 8.320312 2.398437c3.199219.9375 6.527344 1.753906 9.855469 2.472656 14.078125 2.835938 25.582031 12.949219 30.199219 26.546875zm0 0"/><path d="m245.71875 381.359375c-75.109375 0-136-60.886719-136-136 0-75.109375 60.890625-136 136-136 75.113281 0 136 60.890625 136 136-.082031 75.078125-60.921875 135.917969-136 136zm0-256c-66.273438 0-120 53.726563-120 120s53.726562 120 120 120c66.277344 0 120-53.726563 120-120-.074219-66.242187-53.753906-119.925781-120-120zm0 0"/><path d="m245.71875 285.359375c-22.089844 0-40-17.90625-40-40 0-22.089844 17.910156-40 40-40 22.09375 0 40 17.910156 40 40-.023438 22.082031-17.917969 39.972656-40 40zm0-64c-13.253906 0-24 10.746094-24 24s10.746094 24 24 24c13.257812 0 24-10.746094 24-24s-10.742188-24-24-24zm0 0"/></g></svg>