<svg height="479pt" viewBox="-3 0 479 479.75721" width="479pt" xmlns="http://www.w3.org/2000/svg"><path d="m33.738281 457.691406c8.996094 9.027344 21.214844 14.101563 33.960938 14.101563 12.742187 0 24.964843-5.074219 33.960937-14.101563l215.117188-215.199218c-37.722656-12.007813-67.125-41.800782-78.640625-79.679688l-215.679688 215.679688c-9.027343 8.996093-14.097656 21.214843-14.097656 33.960937 0 12.742187 5.070313 24.964844 14.097656 33.960937zm20-52.910156c6.25-6.25 16.378907-6.25 22.628907-.003906 6.25 6.25 6.25 16.382812 0 22.628906-6.25 6.25-16.378907 6.25-22.628907 0-6.253906-6.242188-6.269531-16.367188-.03125-22.625zm0 0" fill="#9bc9ff"/><g fill="#1e81ce"><path d="m65.019531 440.09375c-10.863281 0-20.375-7.292969-23.1875-17.785156-2.8125-10.496094 1.773438-21.570313 11.183594-27 9.40625-5.433594 21.289063-3.867188 28.972656 3.816406 6.859375 6.863281 8.914063 17.183594 5.199219 26.152344-3.714844 8.964844-12.464844 14.8125-22.167969 14.816406zm0-32c-3.816406 0-7.101562 2.695312-7.847656 6.4375s1.257813 7.492188 4.78125 8.953125c3.527344 1.460937 7.59375.226563 9.714844-2.945313 2.121093-3.171874 1.703125-7.402343-.992188-10.101562-1.5-1.5-3.535156-2.34375-5.65625-2.34375zm0 0"/><path d="m329.019531 96.09375h-32c-4.417969 0-8 3.582031-8 8s3.582031 8 8 8h32c4.417969 0 8-3.582031 8-8s-3.582031-8-8-8zm0 0"/><path d="m329.019531 72.09375h-32c-4.417969 0-8 3.582031-8 8s3.582031 8 8 8h32c4.417969 0 8-3.582031 8-8s-3.582031-8-8-8zm0 0"/><path d="m329.019531 120.09375h-32c-4.417969 0-8 3.582031-8 8s3.582031 8 8 8h32c4.417969 0 8-3.582031 8-8s-3.582031-8-8-8zm0 0"/><path d="m329.019531 144.09375h-32c-4.417969 0-8 3.582031-8 8s3.582031 8 8 8h32c4.417969 0 8-3.582031 8-8s-3.582031-8-8-8zm0 0"/><path d="m329.019531 168.09375h-32c-4.417969 0-8 3.582031-8 8s3.582031 8 8 8h32c4.417969 0 8-3.582031 8-8s-3.582031-8-8-8zm0 0"/><path d="m473.761719 170.683594c.101562-.433594.164062-.875.183593-1.320313.132813-.441406.222657-.898437.273438-1.359375 0-.078125 0-.152344-.046875-.230468-.050781-.570313-.160156-1.128907-.335937-1.671876-.082032-.96875-.496094-1.878906-1.167969-2.578124-.273438-.453126-.589844-.878907-.945313-1.269532-.847656-.601562-1.726562-1.152344-2.632812-1.65625-.078125 0-.128906-.097656-.207032-.128906-.445312-.101562-.898437-.167969-1.351562-.191406-.429688-.125-.867188-.210938-1.3125-.265625l-97.199219.082031c-4.441406.015625-8.054687-3.5625-8.082031-8l.082031-48c-.023437-2.128906.808594-4.179688 2.316407-5.683594 1.503906-1.503906 3.554687-2.339844 5.683593-2.316406h97.117188c.433593-.050781.863281-.132812 1.28125-.257812.464843-.023438.925781-.089844 1.375-.199219.082031 0 .128906-.085938.210937-.121094.535156-.238281 1.039063-.542969 1.503906-.902344.398438-.222656.777344-.476562 1.132813-.761719.335937-.375.636719-.777343.898437-1.207031.328126-.398437.617188-.824219.863282-1.28125.140625-.417969.253906-.847656.335937-1.285156.183594-.570313.304688-1.15625.351563-1.753906 0-.078125.046875-.152344.046875-.230469-.050781-.441406-.136719-.878906-.261719-1.304688-.023438-.457031-.089844-.90625-.191406-1.351562-.050782-.144531-.121094-.28125-.167969-.425781v-.054688c-23.023437-64.535156-92.800781-99.480469-158.265625-79.257812-65.46875 20.222656-103.382812 88.429687-86 154.707031l-212.449219 212.429688c-10.511719 10.496093-16.421875 24.742187-16.421875 39.601562 0 14.855469 5.910156 29.105469 16.421875 39.597656l11.265625 11.273438c10.453125 10.550781 24.695313 16.472656 39.542969 16.449218h.058594c14.878906.039063 29.160156-5.882812 39.648437-16.441406l211.820313-211.871094c11.03125 3.074219 22.429687 4.636719 33.882812 4.648438 6.949219.054688 13.890625-.519531 20.734375-1.722656 45.894532-7.589844 84.089844-39.421875 99.824219-83.199219v-.0625c.074219-.160156.136719-.289063.183594-.425781zm-377.757813 281.351562c-7.496094 7.550782-17.699218 11.78125-28.335937 11.753906-10.613281.027344-20.789063-4.207031-28.25-11.753906l-11.3125-11.285156c-7.511719-7.503906-11.730469-17.683594-11.730469-28.300781 0-10.617188 4.21875-20.796875 11.730469-28.300781l206.769531-206.757813c.199219.46875.464844.910156.664062 1.390625.558594 1.296875 1.207032 2.535156 1.808594 3.808594 1.445313 3.070312 2.992188 6.085937 4.664063 9.023437.800781 1.398438 1.597656 2.777344 2.488281 4.144531 1.757812 2.824219 3.636719 5.550782 5.597656 8.222657.847656 1.160156 1.664063 2.34375 2.5625 3.472656 2.84375 3.625 5.882813 7.097656 9.101563 10.398437l.144531.152344c3.3125 3.320313 6.804688 6.460938 10.457031 9.402344 1.101563.894531 2.269531 1.71875 3.40625 2.574219 2.648438 2.007812 5.359375 3.929687 8.167969 5.730469 1.359375.871093 2.730469 1.71875 4.128906 2.542968 2.894532 1.703125 5.863282 3.269532 8.902344 4.75 1.28125.625 2.53125 1.296875 3.84375 1.882813.511719.230469.988281.519531 1.503906.734375zm223.199219-217.167968c-4.363281-1.390626-8.636719-3.042969-12.800781-4.949219-29.222656-13.382813-51.289063-38.679688-60.582032-69.449219-3.203124-10.492188-4.824218-21.40625-4.800781-32.375-.03125-52.371094 36.253907-97.761719 87.34375-109.269531 51.089844-11.507813 103.332031 13.945312 125.757813 61.269531h-85.101563c-13.253906 0-24 10.746094-24 24l-.082031 48c.050781 10.15625 6.492188 19.183594 16.082031 22.535156v65.152344c-2.648437.183594-5.3125.3125-8 .3125-11.480469.027344-22.894531-1.734375-33.832031-5.226562zm57.816406 2.554687v-61.328125l77.175781-.066406c-14.882812 31.273437-43.359374 53.925781-77.175781 61.394531zm0 0"/></g></svg>