<svg height="487pt" viewBox="0 0 487.88482 487" width="487pt" xmlns="http://www.w3.org/2000/svg"><path d="m89.9375 466.144531 172.738281-172.746093c12.933594-12.933594 28.214844-23.285157 45.023438-30.503907l17.136719-7.351562c-15.59375-5.523438-29.792969-14.386719-41.601563-25.96875l-24.382813-24.4375c-11.683593-11.921875-20.589843-26.273438-26.082031-42.035157l-7.46875 17.394532c-7.21875 16.804687-17.566406 32.082031-30.496093 45.015625l-172.753907 172.742187c-18.746093 18.746094-18.746093 49.140625 0 67.890625 18.746094 18.746094 49.140625 18.746094 67.886719 0zm-43.949219-46.5625c6.246094-6.25 16.378907-6.25 22.628907 0 6.246093 6.246094 6.246093 16.378907 0 22.628907-6.25 6.246093-16.382813 6.246093-22.628907-.003907-6.246093-6.246093-6.246093-16.375 0-22.625zm0 0" fill="#9bc9ff"/><g fill="#1e81ce"><path d="m471.546875 101.046875-2.601563-2.601563c-3.121093-3.121093-8.1875-3.121093-11.308593 0l-56.570313 56.570313c-15.621094 15.625-40.953125 15.625-56.574218 0l-11.3125-11.320313c-15.625-15.621093-15.625-40.953124 0-56.578124l56.574218-56.566407c.671875-.679687 1.214844-1.476562 1.601563-2.351562.046875-.105469.152343-.183594.191406-.289063.207031-.625.332031-1.277344.375-1.933594.097656-.355468.167969-.710937.21875-1.074218-.042969-.292969-.101563-.585938-.179687-.871094-.140626-1.800781-.90625-3.496094-2.15625-4.800781l-2.402344-2.398438c-17.695313-17.636719-44.90625-21.46875-66.785156-9.410156l-66.375 34.722656c-.378907.195313-.742188.421875-1.085938.679688-38.402344 28.703125-42.167969 80.261719-28.921875 119.894531l-6.28125 14.578125c-6.796875 15.878906-16.574219 30.3125-28.796875 42.519531l-172.753906 172.78125c-21.871094 21.871094-21.871094 57.332032 0 79.203125 21.871094 21.867188 57.328125 21.867188 79.199218 0l172.730469-172.746093c12.214844-12.230469 26.664063-22.003907 42.558594-28.800782l14.398437-6.175781c13.664063 4.625 27.980469 7.019531 42.402344 7.089844 30.214844 1.226562 59.183594-12.113281 77.886719-35.871094.257813-.347656.488281-.714844.6875-1.097656l34.503906-66.199219c12.203125-21.878906 8.441407-49.191406-9.222656-66.953125zm-166.96875 154.488281c-17.761719 7.601563-33.90625 18.535156-47.558594 32.207032l-172.738281 172.753906c-15.625 15.625-40.957031 15.625-56.582031 0s-15.625-40.960938 0-56.585938l172.800781-172.75c13.664062-13.640625 24.589844-29.773437 32.191406-47.519531l.222656-.53125c5.375 10.175781 12.21875 19.503906 20.3125 27.683594l24.441407 24.4375c8.078125 8.003906 17.277343 14.789062 27.3125 20.144531zm162.136719-95.199218-34.3125 65.824218c-24.609375 32.238282-71.472656 33.941406-104.800782 21.832032-14.480468-5.128907-27.671874-13.355469-38.648437-24.105469l-24.453125-24.40625c-10.839844-11.089844-19.101562-24.429688-24.199219-39.074219-12-33.160156-10.226562-79.839844 21.933594-104.359375l65.96875-34.480469c14.148437-7.835937 31.621094-6.398437 44.304687 3.640625l-50.640624 50.640625c-21.871094 21.871094-21.871094 57.328125 0 79.199219l11.3125 11.3125c21.867187 21.871094 57.328124 21.871094 79.199218 0l50.65625-50.664063c10.199219 12.753907 11.65625 30.417969 3.679688 44.671876zm0 0"/><path d="m57.300781 454.894531c-11.453125 0-21.308593-8.089843-23.539062-19.320312s3.78125-22.476563 14.359375-26.855469c10.582031-4.378906 22.78125-.675781 29.140625 8.847656 6.359375 9.523438 5.105469 22.210938-2.996094 30.304688-4.496094 4.503906-10.601563 7.03125-16.964844 7.023437zm0-32c-3.625 0-6.792969 2.429688-7.730469 5.929688-.9375 3.496093.589844 7.1875 3.726563 9 3.136719 1.808593 7.097656 1.289062 9.65625-1.273438 2.289063-2.289062 2.972656-5.726562 1.734375-8.71875-1.238281-2.988281-4.152344-4.9375-7.386719-4.9375zm0 0"/></g></svg>